<?xml version="1.0" encoding="UTF-8" standalone="no"?><svg xmlns="http://www.w3.org/2000/svg" xmlns:xlink="http://www.w3.org/1999/xlink" contentScriptType="application/ecmascript" contentStyleType="text/css" height="654px" preserveAspectRatio="none" style="width:1030px;height:654px;" version="1.1" viewBox="0 0 1030 654" width="1030px" zoomAndPan="magnify"><defs><filter height="300%" id="f1hl8lhqmmo7aw" width="300%" x="-1" y="-1"><feGaussianBlur result="blurOut" stdDeviation="2.0"/><feColorMatrix in="blurOut" result="blurOut2" type="matrix" values="0 0 0 0 0 0 0 0 0 0 0 0 0 0 0 0 0 0 .4 0"/><feOffset dx="4.0" dy="4.0" in="blurOut2" result="blurOut3"/><feBlend in="SourceGraphic" in2="blurOut3" mode="normal"/></filter></defs><g><!--cluster rarins-redisproxy-core--><polygon fill="#FFFFFF" filter="url(#f1hl8lhqmmo7aw)" points="727,36.5,889,36.5,896,61.6201,962,61.6201,962,259,727,259,727,36.5" style="stroke: #000000; stroke-width: 1.5;"/><line style="stroke: #000000; stroke-width: 1.5;" x1="727" x2="896" y1="61.6201" y2="61.6201"/><text fill="#000000" font-family="sans-serif" font-size="14" font-weight="bold" lengthAdjust="spacingAndGlyphs" textLength="156" x="731" y="54.5439">rarins-redisproxy-core</text><!--cluster rarins-redisproxy-client--><polygon fill="#FFFFFF" filter="url(#f1hl8lhqmmo7aw)" points="311,24,480,24,487,49.1201,619,49.1201,619,142,311,142,311,24" style="stroke: #000000; stroke-width: 1.5;"/><line style="stroke: #000000; stroke-width: 1.5;" x1="311" x2="487" y1="49.1201" y2="49.1201"/><text fill="#000000" font-family="sans-serif" font-size="14" font-weight="bold" lengthAdjust="spacingAndGlyphs" textLength="163" x="315" y="42.0439">rarins-redisproxy-client</text><!--cluster rarins-redisproxy-redis-xpipesvc--><polygon fill="#FFFFFF" filter="url(#f1hl8lhqmmo7aw)" points="426,425,660,425,667,450.1201,1008,450.1201,1008,642,426,642,426,425" style="stroke: #000000; stroke-width: 1.5;"/><line style="stroke: #000000; stroke-width: 1.5;" x1="426" x2="667" y1="450.1201" y2="450.1201"/><text fill="#000000" font-family="sans-serif" font-size="14" font-weight="bold" lengthAdjust="spacingAndGlyphs" textLength="228" x="430" y="443.0439">rarins-redisproxy-redis-xpipesvc</text><!--cluster rarins-redisproxy-eureka--><polygon fill="#FFFFFF" filter="url(#f1hl8lhqmmo7aw)" points="248,283,427,283,434,308.1201,523,308.1201,523,401,248,401,248,283" style="stroke: #000000; stroke-width: 1.5;"/><line style="stroke: #000000; stroke-width: 1.5;" x1="248" x2="434" y1="308.1201" y2="308.1201"/><text fill="#000000" font-family="sans-serif" font-size="14" font-weight="bold" lengthAdjust="spacingAndGlyphs" textLength="173" x="252" y="301.0439">rarins-redisproxy-eureka</text><!--cluster rarins-redisproxy-net--><polygon fill="#FFFFFF" filter="url(#f1hl8lhqmmo7aw)" points="492,166,645,166,652,191.1201,655,191.1201,655,259,492,259,492,166" style="stroke: #000000; stroke-width: 1.5;"/><line style="stroke: #000000; stroke-width: 1.5;" x1="492" x2="652" y1="191.1201" y2="191.1201"/><text fill="#000000" font-family="sans-serif" font-size="14" font-weight="bold" lengthAdjust="spacingAndGlyphs" textLength="147" x="496" y="184.0439">rarins-redisproxy-net</text><!--cluster rarins-redisproxy-admin--><polygon fill="#FFFFFF" filter="url(#f1hl8lhqmmo7aw)" points="22,425,194,425,201,450.1201,383,450.1201,383,543,22,543,22,425" style="stroke: #000000; stroke-width: 1.5;"/><line style="stroke: #000000; stroke-width: 1.5;" x1="22" x2="201" y1="450.1201" y2="450.1201"/><text fill="#000000" font-family="sans-serif" font-size="14" font-weight="bold" lengthAdjust="spacingAndGlyphs" textLength="166" x="26" y="443.0439">rarins-redisproxy-admin</text><!--entity commons--><rect fill="#FEFECE" filter="url(#f1hl8lhqmmo7aw)" height="39.1201" style="stroke: #A80036; stroke-width: 1.5;" width="80" x="743" y="74.5"/><rect fill="#FEFECE" height="5" style="stroke: #A80036; stroke-width: 1.5;" width="10" x="738" y="79.5"/><rect fill="#FEFECE" height="5" style="stroke: #A80036; stroke-width: 1.5;" width="10" x="738" y="103.6201"/><text fill="#000000" font-family="sans-serif" font-size="14" lengthAdjust="spacingAndGlyphs" textLength="60" x="753" y="100.5439">commons</text><!--entity threadpool--><rect fill="#FEFECE" filter="url(#f1hl8lhqmmo7aw)" height="39.1201" style="stroke: #A80036; stroke-width: 1.5;" width="88" x="858" y="74.5"/><rect fill="#FEFECE" height="5" style="stroke: #A80036; stroke-width: 1.5;" width="10" x="853" y="79.5"/><rect fill="#FEFECE" height="5" style="stroke: #A80036; stroke-width: 1.5;" width="10" x="853" y="103.6201"/><text fill="#000000" font-family="sans-serif" font-size="14" lengthAdjust="spacingAndGlyphs" textLength="68" x="868" y="100.5439">threadpool</text><!--entity deliverycore--><rect fill="#FEFECE" filter="url(#f1hl8lhqmmo7aw)" height="39.1201" style="stroke: #A80036; stroke-width: 1.5;" width="97" x="743.5" y="204"/><rect fill="#FEFECE" height="5" style="stroke: #A80036; stroke-width: 1.5;" width="10" x="738.5" y="209"/><rect fill="#FEFECE" height="5" style="stroke: #A80036; stroke-width: 1.5;" width="10" x="738.5" y="233.1201"/><text fill="#000000" font-family="sans-serif" font-size="14" lengthAdjust="spacingAndGlyphs" textLength="77" x="753.5" y="230.0439">deliverycore</text><!--entity APP--><ellipse cx="354" cy="94" fill="#FEFECE" filter="url(#f1hl8lhqmmo7aw)" rx="8" ry="8" style="stroke: #A80036; stroke-width: 2.0;"/><text fill="#000000" font-family="sans-serif" font-size="14" lengthAdjust="spacingAndGlyphs" textLength="27" x="340.5" y="127.0439">APP</text><!--entity delivery--><rect fill="#FEFECE" filter="url(#f1hl8lhqmmo7aw)" height="39.1201" style="stroke: #A80036; stroke-width: 1.5;" width="69" x="416.5" y="74.5"/><rect fill="#FEFECE" height="5" style="stroke: #A80036; stroke-width: 1.5;" width="10" x="411.5" y="79.5"/><rect fill="#FEFECE" height="5" style="stroke: #A80036; stroke-width: 1.5;" width="10" x="411.5" y="103.6201"/><text fill="#000000" font-family="sans-serif" font-size="14" lengthAdjust="spacingAndGlyphs" textLength="49" x="426.5" y="100.5439">delivery</text><!--entity redisClient--><ellipse cx="562" cy="94" fill="#FEFECE" filter="url(#f1hl8lhqmmo7aw)" rx="8" ry="8" style="stroke: #A80036; stroke-width: 2.0;"/><text fill="#000000" font-family="sans-serif" font-size="14" lengthAdjust="spacingAndGlyphs" textLength="67" x="528.5" y="127.0439">redisClient</text><!--entity redisDB--><ellipse cx="551" cy="495" fill="#FEFECE" filter="url(#f1hl8lhqmmo7aw)" rx="8" ry="8" style="stroke: #A80036; stroke-width: 2.0;"/><text fill="#000000" font-family="sans-serif" font-size="14" lengthAdjust="spacingAndGlyphs" textLength="50" x="526" y="528.0439">redisDB</text><!--entity xpipe--><ellipse cx="646" cy="495" fill="#FEFECE" filter="url(#f1hl8lhqmmo7aw)" rx="8" ry="8" style="stroke: #A80036; stroke-width: 2.0;"/><text fill="#000000" font-family="sans-serif" font-size="14" lengthAdjust="spacingAndGlyphs" textLength="33" x="629.5" y="528.0439">xpipe</text><!--entity DB_infterface--><rect fill="#FEFECE" filter="url(#f1hl8lhqmmo7aw)" height="39.1201" style="stroke: #A80036; stroke-width: 1.5;" width="106" x="442" y="587"/><rect fill="#FEFECE" height="5" style="stroke: #A80036; stroke-width: 1.5;" width="10" x="437" y="592"/><rect fill="#FEFECE" height="5" style="stroke: #A80036; stroke-width: 1.5;" width="10" x="437" y="616.1201"/><text fill="#000000" font-family="sans-serif" font-size="14" lengthAdjust="spacingAndGlyphs" textLength="86" x="452" y="613.0439">DB_infterface</text><!--entity ES_infterface--><rect fill="#FEFECE" filter="url(#f1hl8lhqmmo7aw)" height="39.1201" style="stroke: #A80036; stroke-width: 1.5;" width="105" x="583.5" y="587"/><rect fill="#FEFECE" height="5" style="stroke: #A80036; stroke-width: 1.5;" width="10" x="578.5" y="592"/><rect fill="#FEFECE" height="5" style="stroke: #A80036; stroke-width: 1.5;" width="10" x="578.5" y="616.1201"/><text fill="#000000" font-family="sans-serif" font-size="14" lengthAdjust="spacingAndGlyphs" textLength="85" x="593.5" y="613.0439">ES_infterface</text><!--entity MQ_infterface--><rect fill="#FEFECE" filter="url(#f1hl8lhqmmo7aw)" height="39.1201" style="stroke: #A80036; stroke-width: 1.5;" width="109" x="723.5" y="587"/><rect fill="#FEFECE" height="5" style="stroke: #A80036; stroke-width: 1.5;" width="10" x="718.5" y="592"/><rect fill="#FEFECE" height="5" style="stroke: #A80036; stroke-width: 1.5;" width="10" x="718.5" y="616.1201"/><text fill="#000000" font-family="sans-serif" font-size="14" lengthAdjust="spacingAndGlyphs" textLength="89" x="733.5" y="613.0439">MQ_infterface</text><!--entity HDFS_infterface--><rect fill="#FEFECE" filter="url(#f1hl8lhqmmo7aw)" height="39.1201" style="stroke: #A80036; stroke-width: 1.5;" width="124" x="868" y="587"/><rect fill="#FEFECE" height="5" style="stroke: #A80036; stroke-width: 1.5;" width="10" x="863" y="592"/><rect fill="#FEFECE" height="5" style="stroke: #A80036; stroke-width: 1.5;" width="10" x="863" y="616.1201"/><text fill="#000000" font-family="sans-serif" font-size="14" lengthAdjust="spacingAndGlyphs" textLength="104" x="878" y="613.0439">HDFS_infterface</text><!--entity eurekaServer--><ellipse cx="456" cy="353" fill="#FEFECE" filter="url(#f1hl8lhqmmo7aw)" rx="8" ry="8" style="stroke: #A80036; stroke-width: 2.0;"/><text fill="#000000" font-family="sans-serif" font-size="14" lengthAdjust="spacingAndGlyphs" textLength="86" x="413" y="386.0439">eurekaServer</text><!--entity redisFailOver--><rect fill="#FEFECE" filter="url(#f1hl8lhqmmo7aw)" height="39.1201" style="stroke: #A80036; stroke-width: 1.5;" width="105" x="264.5" y="333.5"/><rect fill="#FEFECE" height="5" style="stroke: #A80036; stroke-width: 1.5;" width="10" x="259.5" y="338.5"/><rect fill="#FEFECE" height="5" style="stroke: #A80036; stroke-width: 1.5;" width="10" x="259.5" y="362.6201"/><text fill="#000000" font-family="sans-serif" font-size="14" lengthAdjust="spacingAndGlyphs" textLength="85" x="274.5" y="359.5439">redisFailOver</text><!--entity redisproxy--><rect fill="#FEFECE" filter="url(#f1hl8lhqmmo7aw)" height="39.1201" style="stroke: #A80036; stroke-width: 1.5;" width="85" x="517.5" y="204"/><rect fill="#FEFECE" height="5" style="stroke: #A80036; stroke-width: 1.5;" width="10" x="512.5" y="209"/><rect fill="#FEFECE" height="5" style="stroke: #A80036; stroke-width: 1.5;" width="10" x="512.5" y="233.1201"/><text fill="#000000" font-family="sans-serif" font-size="14" lengthAdjust="spacingAndGlyphs" textLength="65" x="527.5" y="230.0439">redisproxy</text><!--entity HTTP--><ellipse cx="65" cy="495" fill="#FEFECE" filter="url(#f1hl8lhqmmo7aw)" rx="8" ry="8" style="stroke: #A80036; stroke-width: 2.0;"/><text fill="#000000" font-family="sans-serif" font-size="14" lengthAdjust="spacingAndGlyphs" textLength="36" x="47" y="528.0439">HTTP</text><!--entity managerWeb--><rect fill="#FEFECE" filter="url(#f1hl8lhqmmo7aw)" height="39.1201" style="stroke: #A80036; stroke-width: 1.5;" width="105" x="127.5" y="475.5"/><rect fill="#FEFECE" height="5" style="stroke: #A80036; stroke-width: 1.5;" width="10" x="122.5" y="480.5"/><rect fill="#FEFECE" height="5" style="stroke: #A80036; stroke-width: 1.5;" width="10" x="122.5" y="504.6201"/><text fill="#000000" font-family="sans-serif" font-size="14" lengthAdjust="spacingAndGlyphs" textLength="85" x="137.5" y="501.5439">managerWeb</text><!--entity redisManger--><rect fill="#FEFECE" filter="url(#f1hl8lhqmmo7aw)" height="39.1201" style="stroke: #A80036; stroke-width: 1.5;" width="99" x="267.5" y="475.5"/><rect fill="#FEFECE" height="5" style="stroke: #A80036; stroke-width: 1.5;" width="10" x="262.5" y="480.5"/><rect fill="#FEFECE" height="5" style="stroke: #A80036; stroke-width: 1.5;" width="10" x="262.5" y="504.6201"/><text fill="#000000" font-family="sans-serif" font-size="14" lengthAdjust="spacingAndGlyphs" textLength="79" x="277.5" y="501.5439">redisManger</text><!--link APP to delivery--><path d="M363.1,94 C372.835,94 389.925,94 406.388,94 " fill="none" id="APP-delivery" style="stroke: #A80036; stroke-width: 1.0;"/><line style="stroke: #A80036; stroke-width: 1.0;" x1="406.388" x2="416.486" y1="94" y2="94"/><!--link delivery to redisClient--><path d="M485.593,94 C504.335,94 526.966,94 542.515,94 " fill="none" id="delivery-redisClient" style="stroke: #A80036; stroke-width: 1.0;"/><line style="stroke: #A80036; stroke-width: 1.0;" x1="542.515" x2="552.844" y1="94" y2="94"/><!--link redisDB to xpipe--><path d="M560.253,495 C575.112,495 606.69,495 626.824,495 " fill="none" id="redisDB-xpipe" style="stroke: #A80036; stroke-width: 1.0;"/><line style="stroke: #A80036; stroke-width: 1.0;" x1="626.824" x2="636.898" y1="495" y2="495"/><!--link xpipe to DB_infterface--><path d="M640.935,504.378 C633.556,516.033 618.876,537.253 602,551 C585.46,564.473 565.047,575.883 546.5,584.7265 " fill="none" id="xpipe-DB_infterface" style="stroke: #A80036; stroke-width: 1.0;"/><polygon fill="#A80036" points="541.828,586.9192,551.6748,586.7165,546.3543,584.7949,548.2759,579.4744,541.828,586.9192" style="stroke: #A80036; stroke-width: 1.0;"/><!--link xpipe to ES_infterface--><path d="M645.248,504.23 C643.764,520.482 640.408,557.237 638.173,581.7058 " fill="none" id="xpipe-ES_infterface" style="stroke: #A80036; stroke-width: 1.0;"/><polygon fill="#A80036" points="637.714,586.7288,642.516,578.1299,638.1688,581.7495,634.5492,577.4023,637.714,586.7288" style="stroke: #A80036; stroke-width: 1.0;"/><!--link xpipe to MQ_infterface--><path d="M655.073,503.526 C674.695,519.804 721.712,558.8068 751.58,583.5838 " fill="none" id="xpipe-MQ_infterface" style="stroke: #A80036; stroke-width: 1.0;"/><polygon fill="#A80036" points="755.496,586.8318,751.1237,578.0067,751.648,583.6392,746.0155,584.1635,755.496,586.8318" style="stroke: #A80036; stroke-width: 1.0;"/><!--link xpipe to HDFS_infterface--><path d="M655.128,499.519 C688.691,512.46 806.948,558.0555 876.942,585.0427 " fill="none" id="xpipe-HDFS_infterface" style="stroke: #A80036; stroke-width: 1.0;"/><polygon fill="#A80036" points="881.896,586.9529,874.9374,579.9831,877.2307,585.1543,872.0596,587.4476,881.896,586.9529" style="stroke: #A80036; stroke-width: 1.0;"/><!--link delivery to eurekaServer--><path d="M451.368,113.898 C452.33,163.377 454.907,295.838 455.738,338.535 " fill="none" id="delivery-eurekaServer" style="stroke: #A80036; stroke-width: 1.0;"/><polygon fill="#A80036" points="455.839,343.728,459.6634,334.652,455.7418,338.7289,451.6649,334.8074,455.839,343.728" style="stroke: #A80036; stroke-width: 1.0;"/><!--link redisFailOver to redisDB--><path d="M338.594,372.694 C352.046,383.894 369.977,398.039 387,409 C440.016,443.137 508.34,474.979 537.182,487.913 " fill="none" id="redisFailOver-redisDB" style="stroke: #A80036; stroke-width: 1.0;"/><polygon fill="#A80036" points="541.78,489.964,535.1909,482.6439,537.2139,487.9267,531.9312,489.9497,541.78,489.964" style="stroke: #A80036; stroke-width: 1.0;"/><!--link redisClient to redisproxy--><path d="M561.869,103.366 C561.569,122.454 560.827,169.804 560.373,198.733 " fill="none" id="redisClient-redisproxy" style="stroke: #A80036; stroke-width: 1.0;"/><polygon fill="#A80036" points="560.292,203.909,564.4329,194.973,560.3706,198.9096,556.4339,194.8473,560.292,203.909" style="stroke: #A80036; stroke-width: 1.0;"/><!--link redisproxy to eurekaServer--><path d="M544.878,243.04 C523.329,269.457 484.373,317.216 466.046,339.685 " fill="none" id="redisproxy-eurekaServer" style="stroke: #A80036; stroke-width: 1.0;"/><polygon fill="#A80036" points="462.666,343.827,471.4542,339.3809,465.8263,339.9524,465.2548,334.3245,462.666,343.827" style="stroke: #A80036; stroke-width: 1.0;"/><!--link redisproxy to redisDB--><path d="M559.381,243.024 C557.675,294.115 552.931,436.178 551.449,480.568 " fill="none" id="redisproxy-redisDB" style="stroke: #A80036; stroke-width: 1.0;"/><polygon fill="#A80036" points="551.277,485.713,555.5731,476.8505,551.4427,480.7157,547.5775,476.5854,551.277,485.713" style="stroke: #A80036; stroke-width: 1.0;"/><!--link HTTP to managerWeb--><path d="M74.1267,495 C83.5602,495 100.0266,495 117.154,495 " fill="none" id="HTTP-managerWeb" style="stroke: #A80036; stroke-width: 1.0;"/><line style="stroke: #A80036; stroke-width: 1.0;" x1="117.154" x2="127.267" y1="495" y2="495"/><!--link managerWeb to redisManger--><path d="M232.713,495 C244.237,495 255.76,495 267.284,495 " fill="none" id="managerWeb-redisManger" style="stroke: #A80036; stroke-width: 1.0;"/><!--link redisFailOver to redisManger--><path d="M317,372.591 C317,397.694 317,442.457 317,470.053 " fill="none" id="redisFailOver-redisManger" style="stroke: #A80036; stroke-width: 1.0;"/><polygon fill="#A80036" points="317,475.332,321,466.332,317,470.332,313,466.332,317,475.332" style="stroke: #A80036; stroke-width: 1.0;"/><!--link commons to threadpool--><!--link commons to deliverycore--><!--
@startuml

package "rarins-redisproxy-core" {
    [commons]
    [threadpool]
    [deliverycore]
}

package "rarins-redisproxy-client" {
    APP - [delivery]
    [delivery]-redisClient
}

package "rarins-redisproxy-redis-xpipesvc" {
    redisDB - xpipe
    xpipe - -> [DB_infterface]
    xpipe - -> [ES_infterface]
    xpipe - -> [MQ_infterface]
    xpipe - -> [HDFS_infterface]

}

package "rarins-redisproxy-eureka" {
    [delivery] - -> eurekaServer
    [redisFailOver]- -> redisDB
}


package "rarins-redisproxy-net" {
    redisClient - -> [redisproxy]
    [redisproxy] - -> eurekaServer
    [redisproxy]- ->redisDB

}

package "rarins-redisproxy-admin" {
    HTTP - [managerWeb]
    [managerWeb]-[redisManger]
    redisFailOver- ->[redisManger]

}



@enduml

PlantUML version 1.2018.01(Mon Jan 29 02:08:22 CST 2018)
(GPL source distribution)
Java Runtime: OpenJDK Runtime Environment
JVM: OpenJDK 64-Bit Server VM
Java Version: 1.8.0_152-release-1136-b29
Operating System: Windows 7
OS Version: 6.1
Default Encoding: GBK
Language: zh
Country: CN
--></g></svg>