<?xml version="1.0" encoding="UTF-8" standalone="no"?><svg xmlns="http://www.w3.org/2000/svg" xmlns:xlink="http://www.w3.org/1999/xlink" contentScriptType="application/ecmascript" contentStyleType="text/css" height="589.5745px" preserveAspectRatio="none" style="width:845px;height:589px;" version="1.1" viewBox="0 0 845 589" width="845.7801px" zoomAndPan="magnify"><defs><filter height="300%" id="fq5mpwbdguulw" width="300%" x="-1" y="-1"><feGaussianBlur result="blurOut" stdDeviation="1.2056737588652482"/><feColorMatrix in="blurOut" result="blurOut2" type="matrix" values="0 0 0 0 0 0 0 0 0 0 0 0 0 0 0 0 0 0 .4 0"/><feOffset dx="2.4113475177304964" dy="2.4113475177304964" in="blurOut2" result="blurOut3"/><feBlend in="SourceGraphic" in2="blurOut3" mode="normal"/></filter></defs><g><!--cluster redisMonitor--><rect fill="#FEFECE" filter="url(#fq5mpwbdguulw)" height="62.695" rx="7.5355" ry="7.5355" style="stroke: #A80036; stroke-width: 0.9042553191489362;" width="186.8794" x="461.1702" y="273.6879"/><rect fill="#FFFFFF" height="41.5233" rx="7.5355" ry="7.5355" style="stroke: #FFFFFF; stroke-width: 0.6028368794326241;" width="183.2624" x="462.9787" y="293.0511"/><line style="stroke: #A80036; stroke-width: 0.9042553191489362;" x1="461.1702" x2="648.0496" y1="291.2426" y2="291.2426"/><text fill="#000000" font-family="sans-serif" font-size="8.4397" lengthAdjust="spacingAndGlyphs" textLength="47.0213" x="531.0993" y="285.7712">redisMonitor</text><!--cluster AP--><rect fill="#FEFECE" filter="url(#fq5mpwbdguulw)" height="72.3404" rx="7.5355" ry="7.5355" style="stroke: #A80036; stroke-width: 0.9042553191489362;" width="295.9929" x="18.0851" y="19.2908"/><rect fill="#FFFFFF" height="51.1687" rx="7.5355" ry="7.5355" style="stroke: #FFFFFF; stroke-width: 0.6028368794326241;" width="292.3759" x="19.8936" y="38.654"/><line style="stroke: #A80036; stroke-width: 0.9042553191489362;" x1="18.0851" x2="314.078" y1="36.8455" y2="36.8455"/><text fill="#000000" font-family="sans-serif" font-size="8.4397" lengthAdjust="spacingAndGlyphs" textLength="10.8511" x="160.656" y="31.374">AP</text><rect fill="#FEFECE" filter="url(#fq5mpwbdguulw)" height="30.1418" rx="7.5355" ry="7.5355" style="stroke: #A80036; stroke-width: 0.9042553191489362;" width="64.5035" x="573.5993" y="296.5957"/><line style="stroke: #A80036; stroke-width: 0.9042553191489362;" x1="573.5993" x2="638.1028" y1="314.1504" y2="314.1504"/><text fill="#000000" font-family="sans-serif" font-size="8.4397" lengthAdjust="spacingAndGlyphs" textLength="52.4468" x="579.6277" y="309.2818">managerWEB</text><rect fill="#FEFECE" filter="url(#fq5mpwbdguulw)" height="30.1418" rx="7.5355" ry="7.5355" style="stroke: #A80036; stroke-width: 0.9042553191489362;" width="64.5035" x="471.117" y="296.5957"/><line style="stroke: #A80036; stroke-width: 0.9042553191489362;" x1="471.117" x2="535.6206" y1="314.1504" y2="314.1504"/><text fill="#000000" font-family="sans-serif" font-size="8.4397" lengthAdjust="spacingAndGlyphs" textLength="52.4468" x="477.1454" y="309.2818">redisManager</text><rect fill="#FEFECE" filter="url(#fq5mpwbdguulw)" height="30.1418" rx="7.5355" ry="7.5355" style="stroke: #A80036; stroke-width: 0.9042553191489362;" width="71.1348" x="32.5532" y="47.0213"/><line style="stroke: #A80036; stroke-width: 0.9042553191489362;" x1="32.5532" x2="103.6879" y1="64.576" y2="64.576"/><text fill="#000000" font-family="sans-serif" font-size="8.4397" lengthAdjust="spacingAndGlyphs" textLength="59.078" x="38.5816" y="59.7073">APRedisClient1</text><rect fill="#FEFECE" filter="url(#fq5mpwbdguulw)" height="30.1418" rx="7.5355" ry="7.5355" style="stroke: #A80036; stroke-width: 0.9042553191489362;" width="71.1348" x="124.7872" y="47.0213"/><line style="stroke: #A80036; stroke-width: 0.9042553191489362;" x1="124.7872" x2="195.922" y1="64.576" y2="64.576"/><text fill="#000000" font-family="sans-serif" font-size="8.4397" lengthAdjust="spacingAndGlyphs" textLength="59.078" x="130.8156" y="59.7073">APRedisClient2</text><rect fill="#FEFECE" filter="url(#fq5mpwbdguulw)" height="30.1418" rx="7.5355" ry="7.5355" style="stroke: #A80036; stroke-width: 0.9042553191489362;" width="71.1348" x="217.0213" y="47.0213"/><line style="stroke: #A80036; stroke-width: 0.9042553191489362;" x1="217.0213" x2="288.156" y1="64.576" y2="64.576"/><text fill="#000000" font-family="sans-serif" font-size="8.4397" lengthAdjust="spacingAndGlyphs" textLength="59.078" x="223.0496" y="59.7073">APRedisClient3</text><ellipse cx="628.7589" cy="185.0709" fill="#000000" filter="url(#fq5mpwbdguulw)" rx="6.0284" ry="6.0284" style="stroke: none; stroke-width: 0.6028368794326241;"/><rect fill="#FEFECE" filter="url(#fq5mpwbdguulw)" height="98.9377" rx="7.5355" ry="7.5355" style="stroke: #A80036; stroke-width: 0.9042553191489362;" width="332.1631" x="269.1667" y="135.6383"/><rect fill="#FFFFFF" height="77.766" rx="7.5355" ry="7.5355" style="stroke: #FFFFFF; stroke-width: 0.6028368794326241;" width="328.5461" x="270.9752" y="155.0015"/><line style="stroke: #A80036; stroke-width: 0.9042553191489362;" x1="269.1667" x2="601.3298" y1="153.193" y2="153.193"/><text fill="#000000" font-family="sans-serif" font-size="8.4397" lengthAdjust="spacingAndGlyphs" textLength="27.1277" x="421.6844" y="148.3244">Eureka</text><rect fill="#FEFECE" filter="url(#fq5mpwbdguulw)" height="64.576" rx="7.5355" ry="7.5355" style="stroke: #A80036; stroke-width: 0.9042553191489362;" width="94.6454" x="275.7979" y="161.0299"/><rect fill="#FFFFFF" height="43.4043" rx="7.5355" ry="7.5355" style="stroke: #FFFFFF; stroke-width: 0.6028368794326241;" width="91.0284" x="277.6064" y="180.393"/><line style="stroke: #A80036; stroke-width: 0.9042553191489362;" x1="275.7979" x2="370.4433" y1="178.5845" y2="178.5845"/><text fill="#000000" font-family="sans-serif" font-size="8.4397" lengthAdjust="spacingAndGlyphs" textLength="31.3475" x="307.4468" y="173.7159">eureka1</text><rect fill="#FEFECE" filter="url(#fq5mpwbdguulw)" height="30.1418" rx="7.5355" ry="7.5355" style="stroke: #A80036; stroke-width: 0.9042553191489362;" width="68.1206" x="282.4291" y="186.4214"/><line style="stroke: #A80036; stroke-width: 0.9042553191489362;" x1="282.4291" x2="350.5496" y1="203.9761" y2="203.9761"/><text fill="#000000" font-family="sans-serif" font-size="8.4397" lengthAdjust="spacingAndGlyphs" textLength="56.0638" x="288.4574" y="199.1075">redisFailOver1</text><rect fill="#FEFECE" filter="url(#fq5mpwbdguulw)" height="64.576" rx="7.5355" ry="7.5355" style="stroke: #A80036; stroke-width: 0.9042553191489362;" width="94.6454" x="381.2943" y="161.0299"/><rect fill="#FFFFFF" height="43.4043" rx="7.5355" ry="7.5355" style="stroke: #FFFFFF; stroke-width: 0.6028368794326241;" width="91.0284" x="383.1028" y="180.393"/><line style="stroke: #A80036; stroke-width: 0.9042553191489362;" x1="381.2943" x2="475.9397" y1="178.5845" y2="178.5845"/><text fill="#000000" font-family="sans-serif" font-size="8.4397" lengthAdjust="spacingAndGlyphs" textLength="31.3475" x="412.9433" y="173.7159">eureka2</text><rect fill="#FEFECE" filter="url(#fq5mpwbdguulw)" height="30.1418" rx="7.5355" ry="7.5355" style="stroke: #A80036; stroke-width: 0.9042553191489362;" width="68.1206" x="387.9255" y="186.4214"/><line style="stroke: #A80036; stroke-width: 0.9042553191489362;" x1="387.9255" x2="456.0461" y1="203.9761" y2="203.9761"/><text fill="#000000" font-family="sans-serif" font-size="8.4397" lengthAdjust="spacingAndGlyphs" textLength="56.0638" x="393.9539" y="199.1075">redisFailOver2</text><rect fill="#FEFECE" filter="url(#fq5mpwbdguulw)" height="64.576" rx="7.5355" ry="7.5355" style="stroke: #A80036; stroke-width: 0.9042553191489362;" width="94.6454" x="486.7908" y="161.0299"/><rect fill="#FFFFFF" height="43.4043" rx="7.5355" ry="7.5355" style="stroke: #FFFFFF; stroke-width: 0.6028368794326241;" width="91.0284" x="488.5993" y="180.393"/><line style="stroke: #A80036; stroke-width: 0.9042553191489362;" x1="486.7908" x2="581.4362" y1="178.5845" y2="178.5845"/><text fill="#000000" font-family="sans-serif" font-size="8.4397" lengthAdjust="spacingAndGlyphs" textLength="31.3475" x="518.4397" y="173.7159">eureka3</text><rect fill="#FEFECE" filter="url(#fq5mpwbdguulw)" height="30.1418" rx="7.5355" ry="7.5355" style="stroke: #A80036; stroke-width: 0.9042553191489362;" width="68.1206" x="493.422" y="186.4214"/><line style="stroke: #A80036; stroke-width: 0.9042553191489362;" x1="493.422" x2="561.5426" y1="203.9761" y2="203.9761"/><text fill="#000000" font-family="sans-serif" font-size="8.4397" lengthAdjust="spacingAndGlyphs" textLength="56.0638" x="499.4504" y="199.1075">redisFailOver3</text><rect fill="#FEFECE" filter="url(#fq5mpwbdguulw)" height="64.576" rx="7.5355" ry="7.5355" style="stroke: #A80036; stroke-width: 0.9042553191489362;" width="218.227" x="13.2624" y="152.8191"/><rect fill="#FFFFFF" height="43.4043" rx="7.5355" ry="7.5355" style="stroke: #FFFFFF; stroke-width: 0.6028368794326241;" width="214.6099" x="15.0709" y="172.1823"/><line style="stroke: #A80036; stroke-width: 0.9042553191489362;" x1="13.2624" x2="231.4894" y1="170.3738" y2="170.3738"/><text fill="#000000" font-family="sans-serif" font-size="8.4397" lengthAdjust="spacingAndGlyphs" textLength="44.0071" x="100.3723" y="165.5052">redisProxys</text><rect fill="#FEFECE" filter="url(#fq5mpwbdguulw)" height="30.1418" rx="7.5355" ry="7.5355" style="stroke: #A80036; stroke-width: 0.9042553191489362;" width="56.6667" x="19.8936" y="178.2107"/><line style="stroke: #A80036; stroke-width: 0.9042553191489362;" x1="19.8936" x2="76.5603" y1="195.7654" y2="195.7654"/><text fill="#000000" font-family="sans-serif" font-size="8.4397" lengthAdjust="spacingAndGlyphs" textLength="44.6099" x="25.922" y="190.8968">redisProxy1</text><rect fill="#FEFECE" filter="url(#fq5mpwbdguulw)" height="30.1418" rx="7.5355" ry="7.5355" style="stroke: #A80036; stroke-width: 0.9042553191489362;" width="56.6667" x="87.4113" y="178.2107"/><line style="stroke: #A80036; stroke-width: 0.9042553191489362;" x1="87.4113" x2="144.078" y1="195.7654" y2="195.7654"/><text fill="#000000" font-family="sans-serif" font-size="8.4397" lengthAdjust="spacingAndGlyphs" textLength="44.6099" x="93.4397" y="190.8968">redisProxy2</text><rect fill="#FEFECE" filter="url(#fq5mpwbdguulw)" height="30.1418" rx="7.5355" ry="7.5355" style="stroke: #A80036; stroke-width: 0.9042553191489362;" width="56.6667" x="154.9291" y="178.2107"/><line style="stroke: #A80036; stroke-width: 0.9042553191489362;" x1="154.9291" x2="211.5957" y1="195.7654" y2="195.7654"/><text fill="#000000" font-family="sans-serif" font-size="8.4397" lengthAdjust="spacingAndGlyphs" textLength="44.6099" x="160.9574" y="190.8968">redisProxy3</text><rect fill="#FEFECE" filter="url(#fq5mpwbdguulw)" height="207.4483" rx="7.5355" ry="7.5355" style="stroke: #A80036; stroke-width: 0.9042553191489362;" width="272.4823" x="195.3191" y="375.5674"/><rect fill="#FFFFFF" height="186.2766" rx="7.5355" ry="7.5355" style="stroke: #FFFFFF; stroke-width: 0.6028368794326241;" width="268.8652" x="197.1277" y="394.9306"/><line style="stroke: #A80036; stroke-width: 0.9042553191489362;" x1="195.3191" x2="467.8014" y1="393.1221" y2="393.1221"/><text fill="#000000" font-family="sans-serif" font-size="8.4397" lengthAdjust="spacingAndGlyphs" textLength="30.1418" x="316.4894" y="388.2534">redisDB</text><ellipse cx="324.9291" cy="406.9873" fill="#000000" filter="url(#fq5mpwbdguulw)" rx="6.0284" ry="6.0284" style="stroke: none; stroke-width: 0.6028368794326241;"/><rect fill="#FEFECE" filter="url(#fq5mpwbdguulw)" height="127.8738" rx="7.5355" ry="7.5355" style="stroke: #A80036; stroke-width: 0.9042553191489362;" width="74.7518" x="201.9504" y="446.1717"/><rect fill="#FFFFFF" height="106.7021" rx="7.5355" ry="7.5355" style="stroke: #FFFFFF; stroke-width: 0.6028368794326241;" width="71.1348" x="203.7589" y="465.5349"/><line style="stroke: #A80036; stroke-width: 0.9042553191489362;" x1="201.9504" x2="276.7021" y1="463.7264" y2="463.7264"/><text fill="#000000" font-family="sans-serif" font-size="8.4397" lengthAdjust="spacingAndGlyphs" textLength="23.5106" x="227.5709" y="458.8578">redis1</text><rect fill="#FEFECE" filter="url(#fq5mpwbdguulw)" height="30.1418" rx="7.5355" ry="7.5355" style="stroke: #A80036; stroke-width: 0.9042553191489362;" width="42.8014" x="208.5816" y="471.5633"/><line style="stroke: #A80036; stroke-width: 0.9042553191489362;" x1="208.5816" x2="251.383" y1="489.1179" y2="489.1179"/><text fill="#000000" font-family="sans-serif" font-size="8.4397" lengthAdjust="spacingAndGlyphs" textLength="30.7447" x="214.6099" y="484.2493">master1</text><rect fill="#FEFECE" filter="url(#fq5mpwbdguulw)" height="30.1418" rx="7.5355" ry="7.5355" style="stroke: #A80036; stroke-width: 0.9042553191489362;" width="36.773" x="211.5957" y="534.8611"/><line style="stroke: #A80036; stroke-width: 0.9042553191489362;" x1="211.5957" x2="248.3688" y1="552.4158" y2="552.4158"/><text fill="#000000" font-family="sans-serif" font-size="8.4397" lengthAdjust="spacingAndGlyphs" textLength="24.7163" x="217.6241" y="547.5472">salve1</text><!--link master1 to salve1--><path d="M219.4836,501.898 C217.5983,505.2509 215.9154,508.9063 214.9113,512.5562 C213.118,519.0751 214.9059,525.9914 217.7959,532.0457 " fill="none" id="master1-salve1" style="stroke: #A80036; stroke-width: 0.6028368794326241;"/><polygon fill="#A80036" points="219.1925,534.7623,218.8563,528.8345,217.8143,532.0816,214.5673,531.0396,219.1925,534.7623" style="stroke: #A80036; stroke-width: 0.6028368794326241;"/><text fill="#000000" font-family="sans-serif" font-size="7.8369" lengthAdjust="spacingAndGlyphs" textLength="16.8794" x="215.5142" y="522.14">sync</text><!--link salve1 to master1--><path d="M232.031,534.6284 C232.4323,531.1537 232.792,527.4569 232.9965,524.0101 C233.3679,517.748 233.0141,510.8958 232.4355,504.8212 " fill="none" id="salve1-master1" style="stroke: #A80036; stroke-width: 0.6028368794326241;"/><polygon fill="#A80036" points="232.1151,501.7226,230.2741,507.3672,232.4249,504.7208,235.0713,506.8716,232.1151,501.7226" style="stroke: #A80036; stroke-width: 0.6028368794326241;"/><text fill="#000000" font-family="sans-serif" font-size="7.8369" lengthAdjust="spacingAndGlyphs" textLength="22.305" x="233.5993" y="522.14">switch</text><rect fill="#FEFECE" filter="url(#fq5mpwbdguulw)" height="127.8738" rx="7.5355" ry="7.5355" style="stroke: #A80036; stroke-width: 0.9042553191489362;" width="74.7518" x="287.5532" y="446.1717"/><rect fill="#FFFFFF" height="106.7021" rx="7.5355" ry="7.5355" style="stroke: #FFFFFF; stroke-width: 0.6028368794326241;" width="71.1348" x="289.3617" y="465.5349"/><line style="stroke: #A80036; stroke-width: 0.9042553191489362;" x1="287.5532" x2="362.305" y1="463.7264" y2="463.7264"/><text fill="#000000" font-family="sans-serif" font-size="8.4397" lengthAdjust="spacingAndGlyphs" textLength="23.5106" x="313.1738" y="458.8578">redis2</text><rect fill="#FEFECE" filter="url(#fq5mpwbdguulw)" height="30.1418" rx="7.5355" ry="7.5355" style="stroke: #A80036; stroke-width: 0.9042553191489362;" width="42.8014" x="294.1844" y="471.5633"/><line style="stroke: #A80036; stroke-width: 0.9042553191489362;" x1="294.1844" x2="336.9858" y1="489.1179" y2="489.1179"/><text fill="#000000" font-family="sans-serif" font-size="8.4397" lengthAdjust="spacingAndGlyphs" textLength="30.7447" x="300.2128" y="484.2493">master2</text><rect fill="#FEFECE" filter="url(#fq5mpwbdguulw)" height="30.1418" rx="7.5355" ry="7.5355" style="stroke: #A80036; stroke-width: 0.9042553191489362;" width="36.773" x="297.1986" y="534.8611"/><line style="stroke: #A80036; stroke-width: 0.9042553191489362;" x1="297.1986" x2="333.9716" y1="552.4158" y2="552.4158"/><text fill="#000000" font-family="sans-serif" font-size="8.4397" lengthAdjust="spacingAndGlyphs" textLength="24.7163" x="303.227" y="547.5472">salve2</text><!--link master2 to salve2--><path d="M305.0865,501.898 C303.2011,505.2509 301.5183,508.9063 300.5142,512.5562 C298.7209,519.0751 300.5087,525.9914 303.3988,532.0457 " fill="none" id="master2-salve2" style="stroke: #A80036; stroke-width: 0.6028368794326241;"/><polygon fill="#A80036" points="304.7954,534.7623,304.4592,528.8345,303.4172,532.0816,300.1701,531.0396,304.7954,534.7623" style="stroke: #A80036; stroke-width: 0.6028368794326241;"/><text fill="#000000" font-family="sans-serif" font-size="7.8369" lengthAdjust="spacingAndGlyphs" textLength="16.8794" x="301.117" y="522.14">sync</text><!--link salve2 to master2--><path d="M317.6338,534.6284 C318.0352,531.1537 318.3949,527.4569 318.5993,524.0101 C318.9707,517.748 318.6169,510.8958 318.0384,504.8212 " fill="none" id="salve2-master2" style="stroke: #A80036; stroke-width: 0.6028368794326241;"/><polygon fill="#A80036" points="317.7179,501.7226,315.8769,507.3672,318.0277,504.7208,320.6741,506.8716,317.7179,501.7226" style="stroke: #A80036; stroke-width: 0.6028368794326241;"/><text fill="#000000" font-family="sans-serif" font-size="7.8369" lengthAdjust="spacingAndGlyphs" textLength="22.305" x="319.2021" y="522.14">switch</text><rect fill="#FEFECE" filter="url(#fq5mpwbdguulw)" height="127.8738" rx="7.5355" ry="7.5355" style="stroke: #A80036; stroke-width: 0.9042553191489362;" width="74.7518" x="373.156" y="446.1717"/><rect fill="#FFFFFF" height="106.7021" rx="7.5355" ry="7.5355" style="stroke: #FFFFFF; stroke-width: 0.6028368794326241;" width="71.1348" x="374.9645" y="465.5349"/><line style="stroke: #A80036; stroke-width: 0.9042553191489362;" x1="373.156" x2="447.9078" y1="463.7264" y2="463.7264"/><text fill="#000000" font-family="sans-serif" font-size="8.4397" lengthAdjust="spacingAndGlyphs" textLength="23.5106" x="398.7766" y="458.8578">redis3</text><rect fill="#FEFECE" filter="url(#fq5mpwbdguulw)" height="30.1418" rx="7.5355" ry="7.5355" style="stroke: #A80036; stroke-width: 0.9042553191489362;" width="42.8014" x="379.7872" y="471.5633"/><line style="stroke: #A80036; stroke-width: 0.9042553191489362;" x1="379.7872" x2="422.5887" y1="489.1179" y2="489.1179"/><text fill="#000000" font-family="sans-serif" font-size="8.4397" lengthAdjust="spacingAndGlyphs" textLength="30.7447" x="385.8156" y="484.2493">master3</text><rect fill="#FEFECE" filter="url(#fq5mpwbdguulw)" height="30.1418" rx="7.5355" ry="7.5355" style="stroke: #A80036; stroke-width: 0.9042553191489362;" width="36.773" x="382.8014" y="534.8611"/><line style="stroke: #A80036; stroke-width: 0.9042553191489362;" x1="382.8014" x2="419.5745" y1="552.4158" y2="552.4158"/><text fill="#000000" font-family="sans-serif" font-size="8.4397" lengthAdjust="spacingAndGlyphs" textLength="24.7163" x="388.8298" y="547.5472">salve3</text><!--link master3 to salve3--><path d="M390.6893,501.898 C388.8039,505.2509 387.1211,508.9063 386.117,512.5562 C384.3237,519.0751 386.1115,525.9914 389.0016,532.0457 " fill="none" id="master3-salve3" style="stroke: #A80036; stroke-width: 0.6028368794326241;"/><polygon fill="#A80036" points="390.3982,534.7623,390.062,528.8345,389.02,532.0816,385.7729,531.0396,390.3982,534.7623" style="stroke: #A80036; stroke-width: 0.6028368794326241;"/><text fill="#000000" font-family="sans-serif" font-size="7.8369" lengthAdjust="spacingAndGlyphs" textLength="16.8794" x="386.7199" y="522.14">sync</text><!--link salve3 to master3--><path d="M403.2367,534.6284 C403.638,531.1537 403.9977,527.4569 404.2021,524.0101 C404.5735,517.748 404.2197,510.8958 403.6412,504.8212 " fill="none" id="salve3-master3" style="stroke: #A80036; stroke-width: 0.6028368794326241;"/><polygon fill="#A80036" points="403.3208,501.7226,401.4798,507.3672,403.6305,504.7208,406.2769,506.8716,403.3208,501.7226" style="stroke: #A80036; stroke-width: 0.6028368794326241;"/><text fill="#000000" font-family="sans-serif" font-size="7.8369" lengthAdjust="spacingAndGlyphs" textLength="22.305" x="404.805" y="522.14">switch</text><!--link *start*redisDB to redis1--><path d="M319.1738,408.9845 C311.4744,411.0938 297.7496,415.7399 288.7589,423.8667 C282.4092,429.6063 276.6575,436.3587 271.5117,443.5114 " fill="none" id="*start*redisDB-redis1" style="stroke: #A80036; stroke-width: 0.6028368794326241;"/><polygon fill="#A80036" points="269.6429,446.1639,274.7387,443.1169,271.3787,443.6997,270.796,440.3397,269.6429,446.1639" style="stroke: #A80036; stroke-width: 0.6028368794326241;"/><text fill="#000000" font-family="sans-serif" font-size="7.8369" lengthAdjust="spacingAndGlyphs" textLength="32.5532" x="289.3617" y="433.4506">hash访问</text><!--link *start*redisDB to redis2--><path d="M324.9291,413.0675 C324.9291,419.381 324.9291,430.5082 324.9291,443.0146 " fill="none" id="*start*redisDB-redis2" style="stroke: #A80036; stroke-width: 0.6028368794326241;"/><polygon fill="#A80036" points="324.9291,446.0475,327.3404,440.622,324.9291,443.0333,322.5177,440.622,324.9291,446.0475" style="stroke: #A80036; stroke-width: 0.6028368794326241;"/><text fill="#000000" font-family="sans-serif" font-size="7.8369" lengthAdjust="spacingAndGlyphs" textLength="32.5532" x="325.5319" y="433.4506">hash访问</text><!--link *start*redisDB to redis3--><path d="M330.6844,408.9845 C338.3838,411.0938 352.1086,415.7399 361.0993,423.8667 C367.449,429.6063 373.2006,436.3587 378.3465,443.5114 " fill="none" id="*start*redisDB-redis3" style="stroke: #A80036; stroke-width: 0.6028368794326241;"/><polygon fill="#A80036" points="380.2152,446.1639,379.0622,440.3397,378.4795,443.6997,375.1195,443.1169,380.2152,446.1639" style="stroke: #A80036; stroke-width: 0.6028368794326241;"/><text fill="#000000" font-family="sans-serif" font-size="7.8369" lengthAdjust="spacingAndGlyphs" textLength="32.5532" x="370.7447" y="433.4506">hash访问</text><rect fill="#FEFECE" filter="url(#fq5mpwbdguulw)" height="98.3348" rx="7.5355" ry="7.5355" style="stroke: #A80036; stroke-width: 0.9042553191489362;" width="317.695" x="521.1525" y="430.1241"/><rect fill="#FFFFFF" height="77.1631" rx="7.5355" ry="7.5355" style="stroke: #FFFFFF; stroke-width: 0.6028368794326241;" width="314.078" x="522.961" y="449.4873"/><line style="stroke: #A80036; stroke-width: 0.9042553191489362;" x1="521.1525" x2="838.8475" y1="447.6788" y2="447.6788"/><text fill="#000000" font-family="sans-serif" font-size="8.4397" lengthAdjust="spacingAndGlyphs" textLength="38.5816" x="660.7092" y="442.8102">x_pipeSvc</text><ellipse cx="667.039" cy="461.544" fill="#000000" filter="url(#fq5mpwbdguulw)" rx="6.0284" ry="6.0284" style="stroke: none; stroke-width: 0.6028368794326241;"/><rect fill="#FEFECE" filter="url(#fq5mpwbdguulw)" height="30.1418" rx="7.5355" ry="7.5355" style="stroke: #A80036; stroke-width: 0.9042553191489362;" width="61.4894" x="527.7837" y="489.2745"/><line style="stroke: #A80036; stroke-width: 0.9042553191489362;" x1="527.7837" x2="589.273" y1="506.8292" y2="506.8292"/><text fill="#000000" font-family="sans-serif" font-size="8.4397" lengthAdjust="spacingAndGlyphs" textLength="49.4326" x="533.8121" y="501.9606">DB_interface</text><rect fill="#FEFECE" filter="url(#fq5mpwbdguulw)" height="30.1418" rx="7.5355" ry="7.5355" style="stroke: #A80036; stroke-width: 0.9042553191489362;" width="60.8865" x="600.4255" y="489.2745"/><line style="stroke: #A80036; stroke-width: 0.9042553191489362;" x1="600.4255" x2="661.3121" y1="506.8292" y2="506.8292"/><text fill="#000000" font-family="sans-serif" font-size="8.4397" lengthAdjust="spacingAndGlyphs" textLength="48.8298" x="606.4539" y="501.9606">ES_interface</text><rect fill="#FEFECE" filter="url(#fq5mpwbdguulw)" height="30.1418" rx="7.5355" ry="7.5355" style="stroke: #A80036; stroke-width: 0.9042553191489362;" width="63.2979" x="672.1631" y="489.2745"/><line style="stroke: #A80036; stroke-width: 0.9042553191489362;" x1="672.1631" x2="735.461" y1="506.8292" y2="506.8292"/><text fill="#000000" font-family="sans-serif" font-size="8.4397" lengthAdjust="spacingAndGlyphs" textLength="51.2411" x="678.1915" y="501.9606">MQ_interface</text><rect fill="#FEFECE" filter="url(#fq5mpwbdguulw)" height="30.1418" rx="7.5355" ry="7.5355" style="stroke: #A80036; stroke-width: 0.9042553191489362;" width="72.3404" x="746.6135" y="489.2745"/><line style="stroke: #A80036; stroke-width: 0.9042553191489362;" x1="746.6135" x2="818.9539" y1="506.8292" y2="506.8292"/><text fill="#000000" font-family="sans-serif" font-size="8.4397" lengthAdjust="spacingAndGlyphs" textLength="60.2837" x="752.6418" y="501.9606">HDFS_interface</text><!--link *start*x_pipeSvc to DB_interface--><path d="M661.5785,464.1484 C649.4946,468.588 619.5879,479.6313 594.6986,489.2745 C593.8709,489.5952 593.0329,489.9211 592.1878,490.2507 " fill="none" id="*start*x_pipeSvc-DB_interface" style="stroke: #A80036; stroke-width: 0.6028368794326241;"/><polygon fill="#A80036" points="589.2929,491.384,595.2242,491.6514,592.0997,490.2851,593.466,487.1606,589.2929,491.384" style="stroke: #A80036; stroke-width: 0.6028368794326241;"/><!--link *start*x_pipeSvc to ES_interface--><path d="M663.3044,466.4417 C659.084,471.2949 651.9542,479.4944 645.452,486.9718 " fill="none" id="*start*x_pipeSvc-ES_interface" style="stroke: #A80036; stroke-width: 0.6028368794326241;"/><polygon fill="#A80036" points="643.4584,489.2647,648.8383,486.7531,645.4364,486.9903,645.1992,483.5884,643.4584,489.2647" style="stroke: #A80036; stroke-width: 0.6028368794326241;"/><!--link *start*x_pipeSvc to MQ_interface--><path d="M670.8357,466.4417 C675.1267,471.2949 682.3752,479.4944 688.9859,486.9718 " fill="none" id="*start*x_pipeSvc-MQ_interface" style="stroke: #A80036; stroke-width: 0.6028368794326241;"/><polygon fill="#A80036" points="691.0126,489.2647,689.2265,483.6025,689.0165,487.0062,685.6129,486.7962,691.0126,489.2647" style="stroke: #A80036; stroke-width: 0.6028368794326241;"/><!--link *start*x_pipeSvc to HDFS_interface--><path d="M672.6219,464.1531 C685.3441,468.7252 717.4211,480.2528 743.7,489.6969 " fill="none" id="*start*x_pipeSvc-HDFS_interface" style="stroke: #A80036; stroke-width: 0.6028368794326241;"/><polygon fill="#A80036" points="746.5484,490.7205,742.2573,486.6172,743.7116,489.7017,740.6271,491.156,746.5484,490.7205" style="stroke: #A80036; stroke-width: 0.6028368794326241;"/><!--link *start to managerWEB--><path d="M627.7762,191.0613 C624.5691,208.6099 614.333,264.6514 609.0582,293.514 " fill="none" id="*start-managerWEB" style="stroke: #A80036; stroke-width: 0.6028368794326241;"/><polygon fill="#A80036" points="608.5035,296.5578,611.8503,291.6537,609.045,293.5926,607.1061,290.7873,608.5035,296.5578" style="stroke: #A80036; stroke-width: 0.6028368794326241;"/><text fill="#000000" font-family="sans-serif" font-size="7.8369" lengthAdjust="spacingAndGlyphs" textLength="60.8865" x="616.0993" y="262.1725">访问web管理界面</text><!--link Eureka to redisDB--><path d="M367.6949,234.6157 C357.8404,244.8084 349.0106,256.3154 343.0142,268.8652 C327.9023,300.4937 322.5226,337.9383 321.6967,372.3766 " fill="none" id="Eureka-redisDB" style="stroke: #A80036; stroke-width: 0.6028368794326241;"/><polygon fill="#A80036" points="321.6346,375.486,324.154,370.1098,321.6949,372.4724,319.3322,370.0133,321.6346,375.486" style="stroke: #A80036; stroke-width: 0.6028368794326241;"/><text fill="#000000" font-family="sans-serif" font-size="7.8369" lengthAdjust="spacingAndGlyphs" textLength="116.9504" x="343.617" y="315.5236">监控redisServer节点队列是否正常</text><!--link AP to Eureka--><path d="M314.1524,67.4281 C314.2078,67.4816 314.2636,67.5356 314.3198,67.5899 C314.4322,67.6986 314.5463,67.8089 314.6621,67.9208 C314.8937,68.1446 315.132,68.3749 315.3768,68.6115 C315.8663,69.0846 316.382,69.5831 316.9227,70.1056 C321.2477,74.2857 327.1678,80.0076 334.0697,86.6784 C347.8737,100.02 365.6049,117.1574 382.3571,133.3487 " fill="none" id="AP-Eureka" style="stroke: #A80036; stroke-width: 0.6028368794326241;"/><polygon fill="#A80036" points="384.5581,135.4755,382.333,129.971,382.3909,133.3807,378.9812,133.4385,384.5581,135.4755" style="stroke: #A80036; stroke-width: 0.6028368794326241;"/><text fill="#000000" font-family="sans-serif" font-size="7.8369" lengthAdjust="spacingAndGlyphs" textLength="15.6738" x="365.3191" y="115.6832">订阅</text><!--link redisProxys to Eureka--><path d="M231.584,185.0709 C242.7021,185.0709 254.1723,185.0709 265.7377,185.0709 " fill="none" id="redisProxys-Eureka" style="stroke: #A80036; stroke-width: 0.6028368794326241;"/><polygon fill="#A80036" points="269.0021,185.0709,263.5766,182.6596,265.9879,185.0709,263.5766,187.4823,269.0021,185.0709" style="stroke: #A80036; stroke-width: 0.6028368794326241;"/><text fill="#000000" font-family="sans-serif" font-size="7.8369" lengthAdjust="spacingAndGlyphs" textLength="15.6738" x="242.4911" y="181.3924">注册</text><!--link redisProxys to redisDB--><path d="M145.1607,217.5855 C171.6626,254.7034 216.7946,317.9145 256.011,372.8395 " fill="none" id="redisProxys-redisDB" style="stroke: #A80036; stroke-width: 0.6028368794326241;"/><polygon fill="#A80036" points="257.8737,375.4486,256.6837,369.6318,256.1223,372.9955,252.7587,372.4341,257.8737,375.4486" style="stroke: #A80036; stroke-width: 0.6028368794326241;"/><!--link redisDB to x_pipeSvc--><path d="M468.0233,479.2553 C484.3656,479.2553 501.1739,479.2553 517.8345,479.2553 " fill="none" id="redisDB-x_pipeSvc" style="stroke: #A80036; stroke-width: 0.6028368794326241;"/><polygon fill="#A80036" points="520.9433,479.2553,515.5178,476.844,517.9291,479.2553,515.5178,481.6667,520.9433,479.2553" style="stroke: #A80036; stroke-width: 0.6028368794326241;"/><text fill="#000000" font-family="sans-serif" font-size="7.8369" lengthAdjust="spacingAndGlyphs" textLength="31.3475" x="478.8032" y="475.5768">同步数据</text><!--link managerWEB to redisManager--><path d="M573.46,311.6667 C562.4745,311.6667 550.1465,311.6667 538.9277,311.6667 " fill="none" id="managerWEB-redisManager" style="stroke: #A80036; stroke-width: 0.6028368794326241;"/><polygon fill="#A80036" points="535.7948,311.6667,541.2203,314.078,538.809,311.6667,541.2203,309.2553,535.7948,311.6667" style="stroke: #A80036; stroke-width: 0.6028368794326241;"/><text fill="#000000" font-family="sans-serif" font-size="7.8369" lengthAdjust="spacingAndGlyphs" textLength="15.6738" x="546.773" y="307.9881">管理</text><!--link redisManager to redisDB--><path d="M488.4227,326.7436 C476.7722,338.0257 459.4316,354.8195 440.4766,373.1753 " fill="none" id="redisManager-redisDB" style="stroke: #A80036; stroke-width: 0.6028368794326241;"/><polygon fill="#A80036" points="438.1575,375.4215,443.7323,373.3789,440.3226,373.3244,440.377,369.9147,438.1575,375.4215" style="stroke: #A80036; stroke-width: 0.6028368794326241;"/><text fill="#000000" font-family="sans-serif" font-size="7.8369" lengthAdjust="spacingAndGlyphs" textLength="77.766" x="466.5957" y="355.6122">管理与部署redisServer</text><!--link APRedisClient1 to redisProxys--><path d="M74.665,77.3838 C82.6001,95.194 96.2363,125.7988 106.9035,149.7405 " fill="none" id="APRedisClient1-redisProxys" style="stroke: #A80036; stroke-width: 0.6028368794326241;"/><polygon fill="#A80036" points="108.1887,152.6256,108.1839,146.6884,106.9623,149.8722,103.7785,148.6506,108.1887,152.6256" style="stroke: #A80036; stroke-width: 0.6028368794326241;"/><text fill="#000000" font-family="sans-serif" font-size="7.8369" lengthAdjust="spacingAndGlyphs" textLength="32.5532" x="92.8369" y="115.6832">redis协议</text><!--link APRedisClient2 to redisProxys--><path d="M155.7737,77.3838 C150.2185,95.194 140.6738,125.7988 133.2071,149.7405 " fill="none" id="APRedisClient2-redisProxys" style="stroke: #A80036; stroke-width: 0.6028368794326241;"/><polygon fill="#A80036" points="132.307,152.6256,136.2244,148.1641,133.2045,149.7482,131.6204,146.7282,132.307,152.6256" style="stroke: #A80036; stroke-width: 0.6028368794326241;"/><text fill="#000000" font-family="sans-serif" font-size="7.8369" lengthAdjust="spacingAndGlyphs" textLength="32.5532" x="146.4894" y="115.6832">redis协议</text><!--link APRedisClient3 to redisProxys--><path d="M236.8817,77.3838 C217.6434,95.3754 184.4446,126.4221 158.7318,150.4681 " fill="none" id="APRedisClient3-redisProxys" style="stroke: #A80036; stroke-width: 0.6028368794326241;"/><polygon fill="#A80036" points="156.4247,152.6256,162.0342,150.6802,158.6259,150.5665,158.7396,147.1583,156.4247,152.6256" style="stroke: #A80036; stroke-width: 0.6028368794326241;"/><text fill="#000000" font-family="sans-serif" font-size="7.8369" lengthAdjust="spacingAndGlyphs" textLength="32.5532" x="203.7589" y="115.6832">redis协议</text><!--link Eureka to redisManager--><path d="M461.7803,234.512 C473.1046,255.3569 485.5978,278.3527 493.9061,293.6461 " fill="none" id="Eureka-redisManager" style="stroke: #A80036; stroke-width: 0.6028368794326241;"/><polygon fill="#A80036" points="495.4077,296.4095,494.9367,290.4909,493.9689,293.7609,490.699,292.793,495.4077,296.4095" style="stroke: #A80036; stroke-width: 0.6028368794326241;"/><text fill="#000000" font-family="sans-serif" font-size="7.8369" lengthAdjust="spacingAndGlyphs" textLength="92.234" x="477.4468" y="262.1725">redisFailOver调用更新服务</text><!--
@startuml
scale 850 width
[*]- ->managerWEB:访问web管理界面
Eureka- ->redisDB:监控redisServer节点队列是否正常
AP - -> Eureka :订阅
redisProxys -> Eureka : 注册
redisProxys - -> redisDB

redisDB->x_pipeSvc:同步数据

state redisMonitor{
    managerWEB -> redisManager:管理
    redisManager- ->redisDB:管理与部署redisServer

    state managerWEB{
    }
    state redisManager{
    }

}

state AP{
  APRedisClient1 - -> redisProxys:redis协议
  APRedisClient2 - -> redisProxys:redis协议
  APRedisClient3 - -> redisProxys:redis协议
}

state Eureka{
    state eureka1{
        state redisFailOver1
    }
    state eureka2{
        state redisFailOver2
    }
    state eureka3{
        state redisFailOver3
    }
    Eureka - ->redisManager:redisFailOver调用更新服务
  }

state redisProxys {

  state redisProxy1{

  }
  state redisProxy2{

  }
  state redisProxy3{

  }

}

state redisDB {

  [*] - -> redis1 : hash访问
  [*] - -> redis2 : hash访问
  [*] - -> redis3 : hash访问

  state redis1 {
     master1 -> salve1 : sync
     salve1 - -> master1 : switch
  }
  state redis2 {
       master2 -> salve2 : sync
       salve2 - -> master2 : switch
    }
  state redis3 {
        master3 -> salve3 : sync
        salve3 - -> master3 : switch
   }

}

state x_pipeSvc{
    [*]- ->DB_interface
    [*]- ->ES_interface
    [*]- ->MQ_interface
    [*]- ->HDFS_interface

}
@enduml

PlantUML version 1.2018.01(Mon Jan 29 02:08:22 CST 2018)
(GPL source distribution)
Java Runtime: OpenJDK Runtime Environment
JVM: OpenJDK 64-Bit Server VM
Java Version: 1.8.0_152-release-1136-b29
Operating System: Windows 7
OS Version: 6.1
Default Encoding: GBK
Language: zh
Country: CN
--></g></svg>