<?xml version="1.0" encoding="UTF-8" standalone="no"?><svg xmlns="http://www.w3.org/2000/svg" xmlns:xlink="http://www.w3.org/1999/xlink" contentScriptType="application/ecmascript" contentStyleType="text/css" height="573.1514px" preserveAspectRatio="none" style="width:845px;height:573px;" version="1.1" viewBox="0 0 845 573" width="845.5106px" zoomAndPan="magnify"><defs><filter height="300%" id="f1exkpf98o0err" width="300%" x="-1" y="-1"><feGaussianBlur result="blurOut" stdDeviation="1.4964788732394365"/><feColorMatrix in="blurOut" result="blurOut2" type="matrix" values="0 0 0 0 0 0 0 0 0 0 0 0 0 0 0 0 0 0 .4 0"/><feOffset dx="2.992957746478873" dy="2.992957746478873" in="blurOut2" result="blurOut3"/><feBlend in="SourceGraphic" in2="blurOut3" mode="normal"/></filter></defs><g><!--cluster redisMonitor--><rect fill="#FEFECE" filter="url(#f1exkpf98o0err)" height="77.8169" rx="9.353" ry="9.353" style="stroke: #A80036; stroke-width: 1.1223591549295775;" width="315.757" x="16.4613" y="161.2456"/><rect fill="#FFFFFF" height="51.5386" rx="9.353" ry="9.353" style="stroke: #FFFFFF; stroke-width: 0.7482394366197183;" width="311.2676" x="18.706" y="185.2791"/><line style="stroke: #A80036; stroke-width: 1.1223591549295775;" x1="16.4613" x2="332.2183" y1="183.0344" y2="183.0344"/><text fill="#000000" font-family="sans-serif" font-size="10.4754" lengthAdjust="spacingAndGlyphs" textLength="58.3627" x="145.1585" y="176.2433">redisMonitor</text><!--cluster AP--><rect fill="#FEFECE" filter="url(#f1exkpf98o0err)" height="89.7887" rx="9.353" ry="9.353" style="stroke: #A80036; stroke-width: 1.1223591549295775;" width="367.3856" x="341.9454" y="23.9437"/><rect fill="#FFFFFF" height="63.5105" rx="9.353" ry="9.353" style="stroke: #FFFFFF; stroke-width: 0.7482394366197183;" width="362.8961" x="344.1901" y="47.9772"/><line style="stroke: #A80036; stroke-width: 1.1223591549295775;" x1="341.9454" x2="709.331" y1="45.7325" y2="45.7325"/><text fill="#000000" font-family="sans-serif" font-size="10.4754" lengthAdjust="spacingAndGlyphs" textLength="13.4683" x="518.904" y="38.9413">AP</text><rect fill="#FEFECE" filter="url(#f1exkpf98o0err)" height="37.412" rx="9.353" ry="9.353" style="stroke: #A80036; stroke-width: 1.1223591549295775;" width="78.5651" x="241.3072" y="189.6787"/><line style="stroke: #A80036; stroke-width: 1.1223591549295775;" x1="241.3072" x2="319.8724" y1="211.4675" y2="211.4675"/><text fill="#000000" font-family="sans-serif" font-size="10.4754" lengthAdjust="spacingAndGlyphs" textLength="63.6004" x="248.7896" y="205.4246">redisFailOver</text><rect fill="#FEFECE" filter="url(#f1exkpf98o0err)" height="37.412" rx="9.353" ry="9.353" style="stroke: #A80036; stroke-width: 1.1223591549295775;" width="80.0616" x="135.0572" y="189.6787"/><line style="stroke: #A80036; stroke-width: 1.1223591549295775;" x1="135.0572" x2="215.1188" y1="211.4675" y2="211.4675"/><text fill="#000000" font-family="sans-serif" font-size="10.4754" lengthAdjust="spacingAndGlyphs" textLength="65.0968" x="142.5396" y="205.4246">redisManager</text><rect fill="#FEFECE" filter="url(#f1exkpf98o0err)" height="37.412" rx="9.353" ry="9.353" style="stroke: #A80036; stroke-width: 1.1223591549295775;" width="80.0616" x="28.8072" y="189.6787"/><line style="stroke: #A80036; stroke-width: 1.1223591549295775;" x1="28.8072" x2="108.8688" y1="211.4675" y2="211.4675"/><text fill="#000000" font-family="sans-serif" font-size="10.4754" lengthAdjust="spacingAndGlyphs" textLength="65.0968" x="36.2896" y="205.4246">managerWEB</text><rect fill="#FEFECE" filter="url(#f1exkpf98o0err)" height="37.412" rx="9.353" ry="9.353" style="stroke: #A80036; stroke-width: 1.1223591549295775;" width="88.2923" x="359.9032" y="58.3627"/><line style="stroke: #A80036; stroke-width: 1.1223591549295775;" x1="359.9032" x2="448.1954" y1="80.1515" y2="80.1515"/><text fill="#000000" font-family="sans-serif" font-size="10.4754" lengthAdjust="spacingAndGlyphs" textLength="73.3275" x="367.3856" y="74.1086">APRedisClient1</text><rect fill="#FEFECE" filter="url(#f1exkpf98o0err)" height="37.412" rx="9.353" ry="9.353" style="stroke: #A80036; stroke-width: 1.1223591549295775;" width="88.2923" x="474.3838" y="58.3627"/><line style="stroke: #A80036; stroke-width: 1.1223591549295775;" x1="474.3838" x2="562.6761" y1="80.1515" y2="80.1515"/><text fill="#000000" font-family="sans-serif" font-size="10.4754" lengthAdjust="spacingAndGlyphs" textLength="73.3275" x="481.8662" y="74.1086">APRedisClient2</text><rect fill="#FEFECE" filter="url(#f1exkpf98o0err)" height="37.412" rx="9.353" ry="9.353" style="stroke: #A80036; stroke-width: 1.1223591549295775;" width="88.2923" x="588.8644" y="58.3627"/><line style="stroke: #A80036; stroke-width: 1.1223591549295775;" x1="588.8644" x2="677.1567" y1="80.1515" y2="80.1515"/><text fill="#000000" font-family="sans-serif" font-size="10.4754" lengthAdjust="spacingAndGlyphs" textLength="73.3275" x="596.3468" y="74.1086">APRedisClient3</text><ellipse cx="68.838" cy="77.0687" fill="#000000" filter="url(#f1exkpf98o0err)" rx="7.4824" ry="7.4824" style="stroke: none; stroke-width: 0.7482394366197183;"/><rect fill="#FEFECE" filter="url(#f1exkpf98o0err)" height="80.1515" rx="9.353" ry="9.353" style="stroke: #A80036; stroke-width: 1.1223591549295775;" width="172.0951" x="664.4366" y="168.3539"/><rect fill="#FFFFFF" height="53.8732" rx="9.353" ry="9.353" style="stroke: #FFFFFF; stroke-width: 0.7482394366197183;" width="167.6056" x="666.6813" y="192.3874"/><line style="stroke: #A80036; stroke-width: 1.1223591549295775;" x1="664.4366" x2="836.5317" y1="190.1427" y2="190.1427"/><text fill="#000000" font-family="sans-serif" font-size="10.4754" lengthAdjust="spacingAndGlyphs" textLength="12.7201" x="744.1241" y="184.0998">ZK</text><rect fill="#FEFECE" filter="url(#f1exkpf98o0err)" height="37.412" rx="9.353" ry="9.353" style="stroke: #A80036; stroke-width: 1.1223591549295775;" width="37.412" x="672.6673" y="199.8698"/><line style="stroke: #A80036; stroke-width: 1.1223591549295775;" x1="672.6673" x2="710.0792" y1="221.6586" y2="221.6586"/><text fill="#000000" font-family="sans-serif" font-size="10.4754" lengthAdjust="spacingAndGlyphs" textLength="15.713" x="683.5167" y="215.6157">zk1</text><rect fill="#FEFECE" filter="url(#f1exkpf98o0err)" height="37.412" rx="9.353" ry="9.353" style="stroke: #A80036; stroke-width: 1.1223591549295775;" width="37.412" x="723.5475" y="199.8698"/><line style="stroke: #A80036; stroke-width: 1.1223591549295775;" x1="723.5475" x2="760.9595" y1="221.6586" y2="221.6586"/><text fill="#000000" font-family="sans-serif" font-size="10.4754" lengthAdjust="spacingAndGlyphs" textLength="15.713" x="734.397" y="215.6157">zk2</text><rect fill="#FEFECE" filter="url(#f1exkpf98o0err)" height="37.412" rx="9.353" ry="9.353" style="stroke: #A80036; stroke-width: 1.1223591549295775;" width="37.412" x="774.4278" y="199.8698"/><line style="stroke: #A80036; stroke-width: 1.1223591549295775;" x1="774.4278" x2="811.8398" y1="221.6586" y2="221.6586"/><text fill="#000000" font-family="sans-serif" font-size="10.4754" lengthAdjust="spacingAndGlyphs" textLength="15.713" x="785.2773" y="215.6157">zk3</text><rect fill="#FEFECE" filter="url(#f1exkpf98o0err)" height="80.1515" rx="9.353" ry="9.353" style="stroke: #A80036; stroke-width: 1.1223591549295775;" width="270.8627" x="346.4349" y="168.3539"/><rect fill="#FFFFFF" height="53.8732" rx="9.353" ry="9.353" style="stroke: #FFFFFF; stroke-width: 0.7482394366197183;" width="266.3732" x="348.6796" y="192.3874"/><line style="stroke: #A80036; stroke-width: 1.1223591549295775;" x1="346.4349" x2="617.2975" y1="190.1427" y2="190.1427"/><text fill="#000000" font-family="sans-serif" font-size="10.4754" lengthAdjust="spacingAndGlyphs" textLength="54.6215" x="454.5555" y="184.0998">redisProxys</text><rect fill="#FEFECE" filter="url(#f1exkpf98o0err)" height="37.412" rx="9.353" ry="9.353" style="stroke: #A80036; stroke-width: 1.1223591549295775;" width="70.3345" x="354.6655" y="199.8698"/><line style="stroke: #A80036; stroke-width: 1.1223591549295775;" x1="354.6655" x2="425" y1="221.6586" y2="221.6586"/><text fill="#000000" font-family="sans-serif" font-size="10.4754" lengthAdjust="spacingAndGlyphs" textLength="55.3697" x="362.1479" y="215.6157">redisProxy1</text><rect fill="#FEFECE" filter="url(#f1exkpf98o0err)" height="37.412" rx="9.353" ry="9.353" style="stroke: #A80036; stroke-width: 1.1223591549295775;" width="70.3345" x="438.4683" y="199.8698"/><line style="stroke: #A80036; stroke-width: 1.1223591549295775;" x1="438.4683" x2="508.8028" y1="221.6586" y2="221.6586"/><text fill="#000000" font-family="sans-serif" font-size="10.4754" lengthAdjust="spacingAndGlyphs" textLength="55.3697" x="445.9507" y="215.6157">redisProxy2</text><rect fill="#FEFECE" filter="url(#f1exkpf98o0err)" height="37.412" rx="9.353" ry="9.353" style="stroke: #A80036; stroke-width: 1.1223591549295775;" width="70.3345" x="522.2711" y="199.8698"/><line style="stroke: #A80036; stroke-width: 1.1223591549295775;" x1="522.2711" x2="592.6056" y1="221.6586" y2="221.6586"/><text fill="#000000" font-family="sans-serif" font-size="10.4754" lengthAdjust="spacingAndGlyphs" textLength="55.3697" x="529.7535" y="215.6157">redisProxy3</text><rect fill="#FEFECE" filter="url(#f1exkpf98o0err)" height="257.4842" rx="9.353" ry="9.353" style="stroke: #A80036; stroke-width: 1.1223591549295775;" width="338.2042" x="133.9349" y="307.5264"/><rect fill="#FFFFFF" height="231.206" rx="9.353" ry="9.353" style="stroke: #FFFFFF; stroke-width: 0.7482394366197183;" width="333.7148" x="136.1796" y="331.5599"/><line style="stroke: #A80036; stroke-width: 1.1223591549295775;" x1="133.9349" x2="472.1391" y1="329.3152" y2="329.3152"/><text fill="#000000" font-family="sans-serif" font-size="10.4754" lengthAdjust="spacingAndGlyphs" textLength="37.412" x="284.331" y="323.2723">redisDB</text><ellipse cx="294.8063" cy="346.5247" fill="#000000" filter="url(#f1exkpf98o0err)" rx="7.4824" ry="7.4824" style="stroke: none; stroke-width: 0.7482394366197183;"/><rect fill="#FEFECE" filter="url(#f1exkpf98o0err)" height="158.7166" rx="9.353" ry="9.353" style="stroke: #A80036; stroke-width: 1.1223591549295775;" width="92.7817" x="142.1655" y="395.1603"/><rect fill="#FFFFFF" height="132.4384" rx="9.353" ry="9.353" style="stroke: #FFFFFF; stroke-width: 0.7482394366197183;" width="88.2923" x="144.4102" y="419.1938"/><line style="stroke: #A80036; stroke-width: 1.1223591549295775;" x1="142.1655" x2="234.9472" y1="416.9491" y2="416.9491"/><text fill="#000000" font-family="sans-serif" font-size="10.4754" lengthAdjust="spacingAndGlyphs" textLength="29.1813" x="173.9657" y="410.9062">redis1</text><rect fill="#FEFECE" filter="url(#f1exkpf98o0err)" height="37.412" rx="9.353" ry="9.353" style="stroke: #A80036; stroke-width: 1.1223591549295775;" width="53.125" x="150.3961" y="426.6762"/><line style="stroke: #A80036; stroke-width: 1.1223591549295775;" x1="150.3961" x2="203.5211" y1="448.4651" y2="448.4651"/><text fill="#000000" font-family="sans-serif" font-size="10.4754" lengthAdjust="spacingAndGlyphs" textLength="38.1602" x="157.8785" y="442.4221">master1</text><rect fill="#FEFECE" filter="url(#f1exkpf98o0err)" height="37.412" rx="9.353" ry="9.353" style="stroke: #A80036; stroke-width: 1.1223591549295775;" width="45.6426" x="154.1373" y="505.2414"/><line style="stroke: #A80036; stroke-width: 1.1223591549295775;" x1="154.1373" x2="199.7799" y1="527.0302" y2="527.0302"/><text fill="#000000" font-family="sans-serif" font-size="10.4754" lengthAdjust="spacingAndGlyphs" textLength="30.6778" x="161.6197" y="520.9873">salve1</text><!--link master1 to salve1--><path d="M163.9277,464.3276 C161.5876,468.4893 159.4989,473.0263 158.2526,477.5565 C156.0268,485.6478 158.2458,494.2322 161.833,501.7469 " fill="none" id="master1-salve1" style="stroke: #A80036; stroke-width: 0.7482394366197183;"/><polygon fill="#A80036" points="163.5664,505.1187,163.1491,497.7612,161.8558,501.7914,157.8256,500.4981,163.5664,505.1187" style="stroke: #A80036; stroke-width: 0.7482394366197183;"/><text fill="#000000" font-family="sans-serif" font-size="9.7271" lengthAdjust="spacingAndGlyphs" textLength="20.9507" x="159.0009" y="489.452">sync</text><!--link salve1 to master1--><path d="M179.5015,504.9525 C179.9996,500.6398 180.4461,496.0512 180.6998,491.7731 C181.1608,484.0007 180.7217,475.4956 180.0036,467.9559 " fill="none" id="salve1-master1" style="stroke: #A80036; stroke-width: 0.7482394366197183;"/><polygon fill="#A80036" points="179.6059,464.1099,177.3209,471.116,179.9904,467.8313,183.2751,470.5008,179.6059,464.1099" style="stroke: #A80036; stroke-width: 0.7482394366197183;"/><text fill="#000000" font-family="sans-serif" font-size="9.7271" lengthAdjust="spacingAndGlyphs" textLength="27.6849" x="181.4481" y="489.452">switch</text><rect fill="#FEFECE" filter="url(#f1exkpf98o0err)" height="158.7166" rx="9.353" ry="9.353" style="stroke: #A80036; stroke-width: 1.1223591549295775;" width="92.7817" x="248.4155" y="395.1603"/><rect fill="#FFFFFF" height="132.4384" rx="9.353" ry="9.353" style="stroke: #FFFFFF; stroke-width: 0.7482394366197183;" width="88.2923" x="250.6602" y="419.1938"/><line style="stroke: #A80036; stroke-width: 1.1223591549295775;" x1="248.4155" x2="341.1972" y1="416.9491" y2="416.9491"/><text fill="#000000" font-family="sans-serif" font-size="10.4754" lengthAdjust="spacingAndGlyphs" textLength="29.1813" x="280.2157" y="410.9062">redis2</text><rect fill="#FEFECE" filter="url(#f1exkpf98o0err)" height="37.412" rx="9.353" ry="9.353" style="stroke: #A80036; stroke-width: 1.1223591549295775;" width="53.125" x="256.6461" y="426.6762"/><line style="stroke: #A80036; stroke-width: 1.1223591549295775;" x1="256.6461" x2="309.7711" y1="448.4651" y2="448.4651"/><text fill="#000000" font-family="sans-serif" font-size="10.4754" lengthAdjust="spacingAndGlyphs" textLength="38.1602" x="264.1285" y="442.4221">master2</text><rect fill="#FEFECE" filter="url(#f1exkpf98o0err)" height="37.412" rx="9.353" ry="9.353" style="stroke: #A80036; stroke-width: 1.1223591549295775;" width="45.6426" x="260.3873" y="505.2414"/><line style="stroke: #A80036; stroke-width: 1.1223591549295775;" x1="260.3873" x2="306.0299" y1="527.0302" y2="527.0302"/><text fill="#000000" font-family="sans-serif" font-size="10.4754" lengthAdjust="spacingAndGlyphs" textLength="30.6778" x="267.8697" y="520.9873">salve2</text><!--link master2 to salve2--><path d="M270.1777,464.3276 C267.8376,468.4893 265.7489,473.0263 264.5026,477.5565 C262.2768,485.6478 264.4958,494.2322 268.083,501.7469 " fill="none" id="master2-salve2" style="stroke: #A80036; stroke-width: 0.7482394366197183;"/><polygon fill="#A80036" points="269.8164,505.1187,269.3991,497.7612,268.1058,501.7914,264.0756,500.4981,269.8164,505.1187" style="stroke: #A80036; stroke-width: 0.7482394366197183;"/><text fill="#000000" font-family="sans-serif" font-size="9.7271" lengthAdjust="spacingAndGlyphs" textLength="20.9507" x="265.2509" y="489.452">sync</text><!--link salve2 to master2--><path d="M285.7515,504.9525 C286.2496,500.6398 286.6961,496.0512 286.9498,491.7731 C287.4108,484.0007 286.9717,475.4956 286.2536,467.9559 " fill="none" id="salve2-master2" style="stroke: #A80036; stroke-width: 0.7482394366197183;"/><polygon fill="#A80036" points="285.8559,464.1099,283.5709,471.116,286.2404,467.8313,289.5251,470.5008,285.8559,464.1099" style="stroke: #A80036; stroke-width: 0.7482394366197183;"/><text fill="#000000" font-family="sans-serif" font-size="9.7271" lengthAdjust="spacingAndGlyphs" textLength="27.6849" x="287.6981" y="489.452">switch</text><rect fill="#FEFECE" filter="url(#f1exkpf98o0err)" height="158.7166" rx="9.353" ry="9.353" style="stroke: #A80036; stroke-width: 1.1223591549295775;" width="92.7817" x="354.6655" y="395.1603"/><rect fill="#FFFFFF" height="132.4384" rx="9.353" ry="9.353" style="stroke: #FFFFFF; stroke-width: 0.7482394366197183;" width="88.2923" x="356.9102" y="419.1938"/><line style="stroke: #A80036; stroke-width: 1.1223591549295775;" x1="354.6655" x2="447.4472" y1="416.9491" y2="416.9491"/><text fill="#000000" font-family="sans-serif" font-size="10.4754" lengthAdjust="spacingAndGlyphs" textLength="29.1813" x="386.4657" y="410.9062">redis3</text><rect fill="#FEFECE" filter="url(#f1exkpf98o0err)" height="37.412" rx="9.353" ry="9.353" style="stroke: #A80036; stroke-width: 1.1223591549295775;" width="53.125" x="362.8961" y="426.6762"/><line style="stroke: #A80036; stroke-width: 1.1223591549295775;" x1="362.8961" x2="416.0211" y1="448.4651" y2="448.4651"/><text fill="#000000" font-family="sans-serif" font-size="10.4754" lengthAdjust="spacingAndGlyphs" textLength="38.1602" x="370.3785" y="442.4221">master3</text><rect fill="#FEFECE" filter="url(#f1exkpf98o0err)" height="37.412" rx="9.353" ry="9.353" style="stroke: #A80036; stroke-width: 1.1223591549295775;" width="45.6426" x="366.6373" y="505.2414"/><line style="stroke: #A80036; stroke-width: 1.1223591549295775;" x1="366.6373" x2="412.2799" y1="527.0302" y2="527.0302"/><text fill="#000000" font-family="sans-serif" font-size="10.4754" lengthAdjust="spacingAndGlyphs" textLength="30.6778" x="374.1197" y="520.9873">salve3</text><!--link master3 to salve3--><path d="M376.4277,464.3276 C374.0876,468.4893 371.9989,473.0263 370.7526,477.5565 C368.5268,485.6478 370.7458,494.2322 374.333,501.7469 " fill="none" id="master3-salve3" style="stroke: #A80036; stroke-width: 0.7482394366197183;"/><polygon fill="#A80036" points="376.0664,505.1187,375.6491,497.7612,374.3558,501.7914,370.3256,500.4981,376.0664,505.1187" style="stroke: #A80036; stroke-width: 0.7482394366197183;"/><text fill="#000000" font-family="sans-serif" font-size="9.7271" lengthAdjust="spacingAndGlyphs" textLength="20.9507" x="371.5009" y="489.452">sync</text><!--link salve3 to master3--><path d="M392.0015,504.9525 C392.4996,500.6398 392.9461,496.0512 393.1998,491.7731 C393.6608,484.0007 393.2217,475.4956 392.5036,467.9559 " fill="none" id="salve3-master3" style="stroke: #A80036; stroke-width: 0.7482394366197183;"/><polygon fill="#A80036" points="392.1059,464.1099,389.8209,471.116,392.4904,467.8313,395.7751,470.5008,392.1059,464.1099" style="stroke: #A80036; stroke-width: 0.7482394366197183;"/><text fill="#000000" font-family="sans-serif" font-size="9.7271" lengthAdjust="spacingAndGlyphs" textLength="27.6849" x="393.9481" y="489.452">switch</text><!--link *start*redisDB to redis1--><path d="M287.6629,349.0037 C278.1064,351.6217 261.0712,357.3884 249.912,367.4754 C242.0308,374.5994 234.8918,382.9805 228.5048,391.8583 " fill="none" id="*start*redisDB-redis1" style="stroke: #A80036; stroke-width: 0.7482394366197183;"/><polygon fill="#A80036" points="226.1853,395.1506,232.5102,391.3687,228.3398,392.092,227.6165,387.9216,226.1853,395.1506" style="stroke: #A80036; stroke-width: 0.7482394366197183;"/><text fill="#000000" font-family="sans-serif" font-size="9.7271" lengthAdjust="spacingAndGlyphs" textLength="40.4049" x="250.6602" y="379.3709">hash访问</text><!--link *start*redisDB to redis2--><path d="M294.8063,354.0715 C294.8063,361.9078 294.8063,375.7188 294.8063,391.2418 " fill="none" id="*start*redisDB-redis2" style="stroke: #A80036; stroke-width: 0.7482394366197183;"/><polygon fill="#A80036" points="294.8063,395.0062,297.7993,388.272,294.8063,391.265,291.8134,388.272,294.8063,395.0062" style="stroke: #A80036; stroke-width: 0.7482394366197183;"/><text fill="#000000" font-family="sans-serif" font-size="9.7271" lengthAdjust="spacingAndGlyphs" textLength="40.4049" x="295.5546" y="379.3709">hash访问</text><!--link *start*redisDB to redis3--><path d="M301.9498,349.0037 C311.5063,351.6217 328.5415,357.3884 339.7007,367.4754 C347.5819,374.5994 354.7209,382.9805 361.1078,391.8583 " fill="none" id="*start*redisDB-redis3" style="stroke: #A80036; stroke-width: 0.7482394366197183;"/><polygon fill="#A80036" points="363.4274,395.1506,361.9962,387.9216,361.2729,392.092,357.1025,391.3687,363.4274,395.1506" style="stroke: #A80036; stroke-width: 0.7482394366197183;"/><text fill="#000000" font-family="sans-serif" font-size="9.7271" lengthAdjust="spacingAndGlyphs" textLength="40.4049" x="351.6725" y="379.3709">hash访问</text><rect fill="#FEFECE" filter="url(#f1exkpf98o0err)" height="122.0529" rx="9.353" ry="9.353" style="stroke: #A80036; stroke-width: 1.1223591549295775;" width="291.0651" x="538.3583" y="375.2421"/><rect fill="#FFFFFF" height="95.7746" rx="9.353" ry="9.353" style="stroke: #FFFFFF; stroke-width: 0.7482394366197183;" width="286.5757" x="540.603" y="399.2756"/><line style="stroke: #A80036; stroke-width: 1.1223591549295775;" x1="538.3583" x2="829.4234" y1="397.0309" y2="397.0309"/><text fill="#000000" font-family="sans-serif" font-size="10.4754" lengthAdjust="spacingAndGlyphs" textLength="47.8873" x="659.9472" y="390.988">x_pipeSvc</text><ellipse cx="674.5379" cy="414.2404" fill="#000000" filter="url(#f1exkpf98o0err)" rx="7.4824" ry="7.4824" style="stroke: none; stroke-width: 0.7482394366197183;"/><rect fill="#FEFECE" filter="url(#f1exkpf98o0err)" height="37.412" rx="9.353" ry="9.353" style="stroke: #A80036; stroke-width: 1.1223591549295775;" width="76.3204" x="546.5889" y="448.6594"/><line style="stroke: #A80036; stroke-width: 1.1223591549295775;" x1="546.5889" x2="622.9093" y1="470.4482" y2="470.4482"/><text fill="#000000" font-family="sans-serif" font-size="10.4754" lengthAdjust="spacingAndGlyphs" textLength="61.3556" x="554.0713" y="464.4053">DB_interface</text><rect fill="#FEFECE" filter="url(#f1exkpf98o0err)" height="37.412" rx="9.353" ry="9.353" style="stroke: #A80036; stroke-width: 1.1223591549295775;" width="75.5722" x="636.7518" y="448.6594"/><line style="stroke: #A80036; stroke-width: 1.1223591549295775;" x1="636.7518" x2="712.3239" y1="470.4482" y2="470.4482"/><text fill="#000000" font-family="sans-serif" font-size="10.4754" lengthAdjust="spacingAndGlyphs" textLength="60.6074" x="644.2342" y="464.4053">ES_interface</text><rect fill="#FEFECE" filter="url(#f1exkpf98o0err)" height="37.412" rx="9.353" ry="9.353" style="stroke: #A80036; stroke-width: 1.1223591549295775;" width="78.5651" x="725.7923" y="448.6594"/><line style="stroke: #A80036; stroke-width: 1.1223591549295775;" x1="725.7923" x2="804.3574" y1="470.4482" y2="470.4482"/><text fill="#000000" font-family="sans-serif" font-size="10.4754" lengthAdjust="spacingAndGlyphs" textLength="63.6004" x="733.2746" y="464.4053">MQ_interface</text><!--link *start*x_pipeSvc to DB_interface--><path d="M668.3664,418.5372 C658.3325,424.3065 637.7686,436.1308 619.5458,446.609 " fill="none" id="*start*x_pipeSvc-DB_interface" style="stroke: #A80036; stroke-width: 0.7482394366197183;"/><polygon fill="#A80036" points="616.1735,448.5481,623.5033,447.7857,619.4168,446.6831,620.5194,442.5966,616.1735,448.5481" style="stroke: #A80036; stroke-width: 0.7482394366197183;"/><!--link *start*x_pipeSvc to ES_interface--><path d="M674.5379,421.7381 C674.5379,427.6165 674.5379,436.4748 674.5379,444.7725 " fill="none" id="*start*x_pipeSvc-ES_interface" style="stroke: #A80036; stroke-width: 0.7482394366197183;"/><polygon fill="#A80036" points="674.5379,448.5328,677.5308,441.7987,674.5379,444.7916,671.5449,441.7987,674.5379,448.5328" style="stroke: #A80036; stroke-width: 0.7482394366197183;"/><!--link *start*x_pipeSvc to MQ_interface--><path d="M680.761,418.5372 C690.8779,424.3065 711.6131,436.1308 729.9884,446.609 " fill="none" id="*start*x_pipeSvc-MQ_interface" style="stroke: #A80036; stroke-width: 0.7482394366197183;"/><polygon fill="#A80036" points="733.3884,448.5481,729.0215,442.612,730.1386,446.6946,726.056,447.8118,733.3884,448.5481" style="stroke: #A80036; stroke-width: 0.7482394366197183;"/><!--link *start to managerWEB--><path d="M68.838,84.7965 C68.838,103.5466 68.838,155.6143 68.838,185.6 " fill="none" id="*start-managerWEB" style="stroke: #A80036; stroke-width: 0.7482394366197183;"/><polygon fill="#A80036" points="68.838,189.4999,71.831,182.7657,68.838,185.7587,65.8451,182.7657,68.838,189.4999" style="stroke: #A80036; stroke-width: 0.7482394366197183;"/><text fill="#000000" font-family="sans-serif" font-size="9.7271" lengthAdjust="spacingAndGlyphs" textLength="75.5722" x="69.5863" y="143.5856">访问web管理界面</text><!--link AP to ZK--><path d="M709.3875,94.4574 C709.4259,94.5632 709.4644,94.6694 709.5031,94.7759 C709.5805,94.989 709.6585,95.2037 709.737,95.4199 C709.894,95.8523 710.0532,96.2909 710.2146,96.7353 C711.5057,100.2909 712.9342,104.2251 714.4605,108.4285 C720.5658,125.2422 728.2353,146.3635 734.9268,164.7915 " fill="none" id="AP-ZK" style="stroke: #A80036; stroke-width: 0.7482394366197183;"/><polygon fill="#A80036" points="736.2092,168.3232,736.7253,160.972,734.9329,164.8064,731.0985,163.0141,736.2092,168.3232" style="stroke: #A80036; stroke-width: 0.7482394366197183;"/><text fill="#000000" font-family="sans-serif" font-size="9.7271" lengthAdjust="spacingAndGlyphs" textLength="19.4542" x="728.037" y="143.5856">订阅</text><!--link redisProxys to ZK--><path d="M617.3559,208.3847 C631.8957,208.3847 646.4175,208.3847 660.2397,208.3847 " fill="none" id="redisProxys-ZK" style="stroke: #A80036; stroke-width: 0.7482394366197183;"/><polygon fill="#A80036" points="664.1186,208.3847,657.3845,205.3917,660.3774,208.3847,657.3845,211.3776,664.1186,208.3847" style="stroke: #A80036; stroke-width: 0.7482394366197183;"/><text fill="#000000" font-family="sans-serif" font-size="9.7271" lengthAdjust="spacingAndGlyphs" textLength="19.4542" x="631.14" y="203.8189">注册</text><!--link redisProxys to redisDB--><path d="M450.7162,248.5584 C438.0785,264.5543 422.6909,284.0309 406.6779,304.2985 " fill="none" id="redisProxys-redisDB" style="stroke: #A80036; stroke-width: 0.7482394366197183;"/><polygon fill="#A80036" points="404.3112,307.2937,410.8347,303.8658,406.6308,304.3584,406.1382,300.1545,404.3112,307.2937" style="stroke: #A80036; stroke-width: 0.7482394366197183;"/><!--link redisDB to x_pipeSvc--><path d="M472.3029,436.2236 C492.9693,436.2236 513.9724,436.2236 534.3215,436.2236 " fill="none" id="redisDB-x_pipeSvc" style="stroke: #A80036; stroke-width: 0.7482394366197183;"/><polygon fill="#A80036" points="538.1136,436.2236,531.3794,433.2306,534.3724,436.2236,531.3794,439.2165,538.1136,436.2236" style="stroke: #A80036; stroke-width: 0.7482394366197183;"/><text fill="#000000" font-family="sans-serif" font-size="9.7271" lengthAdjust="spacingAndGlyphs" textLength="38.9085" x="485.7945" y="431.6578">同步数据</text><!--link redisFailOver to redisDB--><path d="M282.3886,227.2725 C284.1312,244.8419 286.9431,273.1949 289.9383,303.3969 " fill="none" id="redisFailOver-redisDB" style="stroke: #A80036; stroke-width: 0.7482394366197183;"/><polygon fill="#A80036" points="290.3431,307.4755,292.6555,300.4784,289.9732,303.7527,286.6989,301.0703,290.3431,307.4755" style="stroke: #A80036; stroke-width: 0.7482394366197183;"/><text fill="#000000" font-family="sans-serif" font-size="9.7271" lengthAdjust="spacingAndGlyphs" textLength="106.25" x="288.8204" y="282.7581">监控redisServer是否正常</text><!--link redisManager to redisDB--><path d="M174.2635,227.3204 C174.1879,243.1569 175.6522,266.4353 183.3187,285.0792 C185.942,291.4595 188.923,297.7903 192.1853,304.0374 " fill="none" id="redisManager-redisDB" style="stroke: #A80036; stroke-width: 0.7482394366197183;"/><polygon fill="#A80036" points="194.0267,307.4995,193.5078,300.1485,192.2703,304.1962,188.2226,302.9587,194.0267,307.4995" style="stroke: #A80036; stroke-width: 0.7482394366197183;"/><text fill="#000000" font-family="sans-serif" font-size="9.7271" lengthAdjust="spacingAndGlyphs" textLength="96.5229" x="184.0669" y="282.7581">管理与部署redisServer</text><!--link APRedisClient1 to redisProxys--><path d="M414.8696,95.8674 C425.4968,113.5977 442.1115,141.3147 456.1357,164.7114 " fill="none" id="APRedisClient1-redisProxys" style="stroke: #A80036; stroke-width: 0.7482394366197183;"/><polygon fill="#A80036" points="458.1852,168.1301,457.2891,160.8155,456.2613,164.9215,452.1553,163.8938,458.1852,168.1301" style="stroke: #A80036; stroke-width: 0.7482394366197183;"/><text fill="#000000" font-family="sans-serif" font-size="9.7271" lengthAdjust="spacingAndGlyphs" textLength="40.4049" x="443.706" y="143.5856">redis协议</text><!--link APRedisClient2 to redisProxys--><path d="M513.4322,95.8674 C508.4452,113.5251 500.6612,141.088 494.0707,164.4234 " fill="none" id="APRedisClient2-redisProxys" style="stroke: #A80036; stroke-width: 0.7482394366197183;"/><polygon fill="#A80036" points="493.0239,168.1301,497.7353,162.4636,494.0413,164.5299,491.975,160.8359,493.0239,168.1301" style="stroke: #A80036; stroke-width: 0.7482394366197183;"/><text fill="#000000" font-family="sans-serif" font-size="9.7271" lengthAdjust="spacingAndGlyphs" textLength="40.4049" x="503.5651" y="143.5856">redis协议</text><!--link APRedisClient3 to redisProxys--><path d="M611.9948,95.8674 C591.0987,113.8154 558.2869,141.9979 530.84,165.5719 " fill="none" id="APRedisClient3-redisProxys" style="stroke: #A80036; stroke-width: 0.7482394366197183;"/><polygon fill="#A80036" points="527.862,168.1301,534.9203,166.0119,530.6997,165.6922,531.0195,161.4716,527.862,168.1301" style="stroke: #A80036; stroke-width: 0.7482394366197183;"/><text fill="#000000" font-family="sans-serif" font-size="9.7271" lengthAdjust="spacingAndGlyphs" textLength="40.4049" x="567.9137" y="143.5856">redis协议</text><!--
@startuml
scale 850 width
[*]- ->managerWEB:访问web管理界面
AP - -> ZK :订阅
redisProxys -> ZK : 注册
redisProxys - -> redisDB

redisDB->x_pipeSvc:同步数据

state redisMonitor{
    redisFailOver- ->redisDB:监控redisServer是否正常
    redisManager- ->redisDB:管理与部署redisServer
    state managerWEB{
    }
}

state AP{
  APRedisClient1 - -> redisProxys:redis协议
  APRedisClient2 - -> redisProxys:redis协议
  APRedisClient3 - -> redisProxys:redis协议
}

state ZK{
    state zk1
    state zk2
    state zk3
  }

state redisProxys {

  state redisProxy1{
  }
  state redisProxy2{

  }
  state redisProxy3{

  }

}

state redisDB {

  [*] - -> redis1 : hash访问
  [*] - -> redis2 : hash访问
  [*] - -> redis3 : hash访问

  state redis1 {
     master1 -> salve1 : sync
     salve1 - -> master1 : switch
  }
  state redis2 {
       master2 -> salve2 : sync
       salve2 - -> master2 : switch
    }
  state redis3 {
        master3 -> salve3 : sync
        salve3 - -> master3 : switch
   }

}

state x_pipeSvc{
    [*]- ->DB_interface
    [*]- ->ES_interface
    [*]- ->MQ_interface

}
@enduml

PlantUML version 1.2018.01(Mon Jan 29 02:08:22 CST 2018)
(GPL source distribution)
Java Runtime: OpenJDK Runtime Environment
JVM: OpenJDK 64-Bit Server VM
Java Version: 1.8.0_152-release-1024-b15
Operating System: Windows 7
OS Version: 6.1
Default Encoding: GBK
Language: zh
Country: CN
--></g></svg>